<?xml version="1.0" encoding="UTF-8" standalone="no"?>
<svg
   xmlns:dc="http://purl.org/dc/elements/1.1/"
   xmlns:cc="http://creativecommons.org/ns#"
   xmlns:rdf="http://www.w3.org/1999/02/22-rdf-syntax-ns#"
   xmlns:svg="http://www.w3.org/2000/svg"
   xmlns="http://www.w3.org/2000/svg"
   xmlns:sodipodi="http://sodipodi.sourceforge.net/DTD/sodipodi-0.dtd"
   xmlns:inkscape="http://www.inkscape.org/namespaces/inkscape"
   version="1.1"
   id="svg7624"
   width="297.99997"
   height="36.761303"
   viewBox="0 0 297.99997 36.761304"
   inkscape:version="0.91 r13725"
   sodipodi:docname="ori-brand-icon-BridgeStone.svg">
  <sodipodi:namedview
     pagecolor="#ffffff"
     bordercolor="#666666"
     borderopacity="1"
     objecttolerance="10"
     gridtolerance="10"
     guidetolerance="10"
     inkscape:pageopacity="0"
     inkscape:pageshadow="2"
     inkscape:window-width="1920"
     inkscape:window-height="1017"
     id="namedview8"
     showgrid="false"
     fit-margin-top="0"
     fit-margin-left="0"
     fit-margin-right="0"
     fit-margin-bottom="0"
     inkscape:zoom="2.5333333"
     inkscape:cx="121.22626"
     inkscape:cy="-14.750596"
     inkscape:window-x="-8"
     inkscape:window-y="-8"
     inkscape:window-maximized="1"
     inkscape:current-layer="svg7624" />
  <metadata
     id="metadata7636">
    <rdf:RDF>
      <cc:Work
         rdf:about="">
        <dc:format>image/svg+xml</dc:format>
        <dc:type
           rdf:resource="http://purl.org/dc/dcmitype/StillImage" />
        <dc:title></dc:title>
      </cc:Work>
    </rdf:RDF>
  </metadata>
  <defs
     id="defs7634" />
  <g
     id="g4136"
     transform="translate(-49.157917,128.8684)">
    <path
       inkscape:connector-curvature="0"
       d="m 180.53067,-108.28587 -2.8334,10.413339 c -0.59513,0.0566 -1.3439,0.14392 -2.5067,0.14392 -5.56164,0 -4.94225,-1.67383 -2.59726,-10.748099 2.442,-9.4333 3.86032,-11.15404 7.3309,-11.15404 3.3412,0 3.3687,2.2512 2.51803,5.09913 l 8.4775,0 c 1.37466,-5.31582 0.4577,-10.02843 -9.45593,-10.02843 -11.0392,0 -14.03755,2.3272 -17.59546,16.08335 -3.31208,12.810069 -2.2237,16.207869 9.70823,16.207869 5.65868,0 8.02954,-0.41725 11.47424,-1.04312 l 3.99132,-14.973929 -8.51148,0 z m 20.22249,10.271189 c -1.10457,0 -1.4927,-0.33477 -1.28246,-1.2291 l 1.9229,-7.533049 11.34162,0 1.27923,-4.94226 -11.34486,0 1.2873,-5.02312 c 0.33962,-1.3132 1.27438,-2.42908 3.0986,-2.42908 l 9.084,0 1.27922,-4.9471 -13.1982,0 c -5.4727,0 -7.11905,0.97842 -9.24895,9.21497 l -3.91854,15.062899 c -1.20322,5.05545 0.29757,7.25488 4.42797,7.25488 l 11.38853,0 c 2.24148,0 3.6873,-1.1919 4.3827,-3.01937 l 0.93475,-2.40966 -11.4338,0 z m 129.73918,0 c -1.10457,0 -1.4927,-0.33477 -1.28246,-1.2291 l 1.92287,-7.533049 11.34325,0 1.27923,-4.94226 -11.34324,0 1.28732,-5.02312 c 0.34123,-1.3132 1.27276,-2.42908 3.0986,-2.42908 l 9.08075,0 1.27923,-4.94709 -13.19498,0 c -5.47917,0 -7.12066,0.97842 -9.25217,9.21497 l -3.9153,15.062899 c -1.20323,5.05545 0.29756,7.25488 4.42635,7.25488 l 11.39176,0 c 2.24148,0 3.68244,-1.1919 4.37946,-3.01937 l 0.93476,-2.40966 -11.43543,0 z m -186.80669,0.04334 -2.3288,0 5.4824,-21.193799 c 0.7035,-0.003 0.9671,-0.0307 2.7137,-0.0307 4.92286,0 4.9164,1.62855 2.56655,10.7093 -2.37246,9.190699 -3.75196,10.515219 -8.43384,10.515219 m 7.27592,-26.145749 -11.35459,0 -7.90825,30.585049 c -0.13584,0.52398 0.17143,0.94607 0.68248,0.94607 l 10.11253,0 c 12.70172,0 14.84132,-2.42746 18.32645,-15.900599 3.02746,-11.7055 1.16118,-15.63052 -9.85862,-15.63052 m 158.82891,-0.0615 c -6.54007,0 -9.57884,0.1407 -11.36588,0.0615 l -7.9131,30.585049 c -0.13747,0.52398 0.1698,0.94608 0.68085,0.94608 l 7.58804,0 6.87324,-26.579169 c 0.70026,-0.003 1.766,-0.0615 2.84147,-0.0615 3.68568,0 4.17246,1.31157 3.1989,5.0684 l -5.33687,20.626139 c -0.13423,0.52398 0.17143,0.94608 0.68247,0.94608 l 7.58643,0 5.57944,-21.572229 c 1.93097,-7.4716 -1.352,-10.02035 -10.41496,-10.02035 m -65.70709,0.0608 -1.31157,5.12338 8.429,0 c 0.0841,0 0.0857,0.10674 0.008,0.16496 -1.34553,1.00915 -2.16708,2.45657 -2.55684,3.96545 l -5.5293,21.332869 c -0.13422,0.52237 0.17305,0.94608 0.6841,0.94608 l 8.14274,0 6.84412,-26.409359 4.17407,0 c 2.34175,0 3.76653,-0.98165 4.55897,-3.02745 l 0.7973,-2.09592 -24.24066,0 z m -118.11534,31.531939 7.9115,-30.585049 c 0.13584,-0.52236 -0.1698,-0.9477 -0.68086,-0.9477 l -8.01984,0 -7.9115,30.586669 c -0.13583,0.52398 0.16982,0.94608 0.6825,0.94608 l 8.0182,0 z m 148.38002,-4.8588 c -3.63877,0 -4.18054,-1.32775 -1.6415,-11.157269 2.11697,-8.17833 4.13365,-11.0295 7.38105,-11.0295 3.63876,0 4.04145,1.95684 1.69324,11.0295 -2.32233,8.988569 -4.6188,11.157269 -7.43278,11.157269 m 7.00907,-27.107999 c -9.54813,0 -13.68986,1.6997 -17.44345,16.20302 -3.24578,12.565869 -0.64204,16.201399 9.06458,16.201399 9.87803,0 13.78203,-2.03123 17.44343,-16.201399 2.65226,-10.25647 2.1121,-16.20302 -9.06457,-16.20302"
       id="path7626" />
    <path
       style="fill:#ff0000"
       inkscape:connector-curvature="0"
       d="m 54.119765,-108.11606 4.93903,-17.32216 c 0.4787,-1.78056 2.44847,-3.40587 4.43767,-3.40587 l 15.10493,0 c 0.2539,0 0.33314,0.3299 0.13907,0.46414 -7.85488,5.37406 -17.327,13.35023 -24.19213,20.48868 -0.17952,0.18922 -0.49973,0.0388 -0.42857,-0.2248"
       id="path7628" />
    <path
       inkscape:connector-curvature="0"
       d="m 66.053135,-97.714681 4.88726,-17.095739 c 0.07278,-0.25875 -0.20538,-0.44797 -0.4124,-0.26845 -7.19503,6.18428 -15.87147,15.221349 -21.3005,22.054149 -0.13746,0.17467 -0.0663,0.43828 0.1698,0.43828 l 21.15823,0 c 8.92226,0 13.80468,-2.76385 15.57555,-9.366999 1.44256,-5.38052 -1.37788,-9.0484 -5.87702,-9.99448 -0.08086,-0.0178 -0.15202,-0.1682 0,-0.19407 3.80696,-0.65174 7.64626,-2.18487 9.01606,-7.73682 1.48134,-6.00961 -3.11322,-9.30391 -8.39832,-8.96591 l -8.08613,28.31283 c -0.43666,1.531499 -2.0749,2.817199 -3.63068,2.817199 l -3.10186,0 z m 45.975085,-7.515109 c -0.28302,-0.9396 -0.58867,-1.62532 -1.03664,-2.18488 -0.0582,-0.0728 -0.0712,-0.1698 0.034,-0.20215 3.6242,-1.1175 5.9967,-3.4075 7.00098,-7.28724 1.32614,-5.12823 -1.90832,-9.21336 -10.07532,-9.21336 l -12.138935,0 -7.9131,30.585049 c -0.13585,0.52398 0.1698,0.94608 0.68247,0.94608 l 7.58642,0 6.873225,-26.579169 c 0.7342,-0.003 1.43608,-0.0307 3.1827,-0.0307 2.92394,0 4.00425,1.80482 3.37515,4.23875 -0.82964,3.20858 -3.31694,5.01017 -6.27162,5.01017 l -1.1175,0 3.15683,15.260179 c 0.3752,1.48785 1.12398,2.10078 2.83177,2.10078 l 6.77458,0 -2.94497,-12.643499 z m 103.24281,1.96219 c -3.21182,7.681839 0.9768,11.160499 9.50608,11.160499 7.78696,0 12.10658,-1.85173 13.95992,-9.011199 0.63234,-2.4485 0.2264,-5.08942 -1.2776,-6.72283 -2.91264,-3.16492 -8.5115,-3.75683 -10.47966,-5.5924 -1.00106,-0.93313 -0.99298,-2.23823 -0.70188,-3.3622 0.5337,-2.0636 1.91966,-3.18757 4.166,-3.18757 3.51908,0 3.60803,2.16548 2.74443,4.73525 l 7.55084,0 c 1.77572,-5.36596 -0.55147,-9.57238 -9.44624,-9.57238 -7.48292,0 -11.52276,2.9385 -12.9734,8.56323 -0.39947,1.54284 -0.2523,4.06087 0.67114,5.63928 2.05388,3.5191 7.4991,3.95737 10.512,6.05168 1.30833,0.9105 1.352,2.1396 1.00106,3.49 -0.67762,2.626369 -1.99728,3.878099 -4.62205,3.878099 -2.5245,0 -4.03984,-1.46844 -2.59565,-6.069459 l -8.015,0 z"
       id="path7630" />
  </g>
</svg>
