<?xml version="1.0" encoding="UTF-8" standalone="no"?>
<!-- Created with Inkscape (http://www.inkscape.org/) -->

<svg
   xmlns:dc="http://purl.org/dc/elements/1.1/"
   xmlns:cc="http://creativecommons.org/ns#"
   xmlns:rdf="http://www.w3.org/1999/02/22-rdf-syntax-ns#"
   xmlns:svg="http://www.w3.org/2000/svg"
   xmlns="http://www.w3.org/2000/svg"
   xmlns:sodipodi="http://sodipodi.sourceforge.net/DTD/sodipodi-0.dtd"
   xmlns:inkscape="http://www.inkscape.org/namespaces/inkscape"
   version="1.1"
   width="1013.0345"
   height="246.07256"
   id="svg4529"
   inkscape:version="0.91 r13725"
   sodipodi:docname="brand-icon-ToyoTires-g.svg">
  <sodipodi:namedview
     pagecolor="#ffffff"
     bordercolor="#666666"
     borderopacity="1"
     objecttolerance="10"
     gridtolerance="10"
     guidetolerance="10"
     inkscape:pageopacity="0"
     inkscape:pageshadow="2"
     inkscape:window-width="1920"
     inkscape:window-height="1017"
     id="namedview110"
     showgrid="false"
     fit-margin-top="0"
     fit-margin-left="0"
     fit-margin-right="0"
     fit-margin-bottom="0"
     inkscape:zoom="0.37109375"
     inkscape:cx="62.580315"
     inkscape:cy="-284.80234"
     inkscape:window-x="-8"
     inkscape:window-y="-8"
     inkscape:window-maximized="1"
     inkscape:current-layer="svg4529" />
  <defs
     id="defs4531">
    <clipPath
       id="clipPath3655">
      <path
         d="m 988.547,257.81 175.074,0 0,45.497 -175.074,0 0,-45.497 z"
         id="path3657"
         inkscape:connector-curvature="0" />
    </clipPath>
  </defs>
  <metadata
     id="metadata4534">
    <rdf:RDF>
      <cc:Work
         rdf:about="">
        <dc:format>image/svg+xml</dc:format>
        <dc:type
           rdf:resource="http://purl.org/dc/dcmitype/StillImage" />
        <dc:title />
      </cc:Work>
    </rdf:RDF>
  </metadata>
  <g
     id="g4541"
     transform="translate(-18.26179,388.3749)"
     style="fill:#959da0;fill-opacity:1">
    <g
       transform="matrix(5.9452895,0,0,-5.9452895,27.304575,-385.54851)"
       id="g3659"
       style="fill:#959da0;fill-opacity:1">
      <path
         d="m 0,0 -1.521,-5.614 4.804,0 -2.948,-11.355 7.397,0 2.949,11.355 4.782,0 L 16.985,0 0,0 Z"
         id="path3661"
         style="fill:#959da0;fill-opacity:1;fill-rule:nonzero;stroke:none"
         inkscape:connector-curvature="0" />
    </g>
    <g
       transform="matrix(5.9452895,0,0,-5.9452895,195.00038,-318.30966)"
       id="g3663"
       style="fill:#959da0;fill-opacity:1">
      <path
         d="m 0,0 c -0.712,-1.295 -1.429,-1.599 -3.167,-1.599 -0.975,0 -2.166,0.399 -2.166,2.141 0,0.848 0.547,2.754 1.191,3.955 0.857,1.6 1.833,1.67 2.999,1.67 1.646,0 2.31,-0.754 2.31,-1.979 C 1.167,2.283 0.264,0.47 0,0 m -0.285,11.781 c -4.335,0 -7.884,-0.429 -9.931,-3.687 -1.694,-2.706 -2.694,-6.329 -2.694,-8.751 0,-5.303 3.954,-5.469 9.243,-5.469 3.406,0 7.887,0.215 9.745,3.168 1.861,2.864 2.886,6.842 2.886,9.267 0,5.307 -4.933,5.472 -9.249,5.472"
         id="path3665"
         style="fill:#959da0;fill-opacity:1;fill-rule:nonzero;stroke:none"
         inkscape:connector-curvature="0" />
    </g>
    <g
       transform="matrix(5.9452895,0,0,-5.9452895,329.20756,-385.5604)"
       id="g3667"
       style="fill:#959da0;fill-opacity:1">
      <path
         d="m 0,0 -4.361,-7.473 -0.071,0 L -5.36,0 l -7.95,0 3.546,-13.09 -2.874,-3.881 8.71,0 L 8.426,0 0,0 Z"
         id="path3669"
         style="fill:#959da0;fill-opacity:1;fill-rule:nonzero;stroke:none"
         inkscape:connector-curvature="0" />
    </g>
    <g
       transform="matrix(5.9452895,0,0,-5.9452895,435.94989,-318.30966)"
       id="g3671"
       style="fill:#959da0;fill-opacity:1">
      <path
         d="m 0,0 c -0.714,-1.295 -1.429,-1.599 -3.168,-1.599 -0.975,0 -2.169,0.399 -2.169,2.141 0,0.848 0.551,2.754 1.194,3.955 0.856,1.6 1.834,1.67 2.998,1.67 1.643,0 2.311,-0.754 2.311,-1.979 C 1.166,2.283 0.262,0.47 0,0 m -0.287,11.781 c -4.333,0 -7.881,-0.429 -9.933,-3.687 -1.69,-2.706 -2.692,-6.329 -2.692,-8.751 0,-5.303 3.954,-5.469 9.245,-5.469 3.403,0 7.885,0.215 9.743,3.168 1.861,2.864 2.886,6.842 2.886,9.267 0,5.307 -4.935,5.472 -9.249,5.472"
         id="path3673"
         style="fill:#959da0;fill-opacity:1;fill-rule:nonzero;stroke:none"
         inkscape:connector-curvature="0" />
    </g>
    <g
       transform="matrix(5.9452895,0,0,-5.9452895,525.21068,-385.54851)"
       id="g3675"
       style="fill:#959da0;fill-opacity:1">
      <path
         d="m 0,0 -1.521,-5.615 4.805,0 -2.95,-11.354 7.396,0 2.952,11.354 4.776,0 L 16.984,0 0,0 Z"
         id="path3677"
         style="fill:#959da0;fill-opacity:1;fill-rule:nonzero;stroke:none"
         inkscape:connector-curvature="0" />
    </g>
    <g
       transform="matrix(5.9452895,0,0,-5.9452895,632.94527,-385.5604)"
       id="g3679"
       style="fill:#959da0;fill-opacity:1">
      <path
         d="m 0,0 -4.501,-16.971 7.166,0 L 7.285,0 0,0 Z"
         id="path3681"
         style="fill:#959da0;fill-opacity:1;fill-rule:nonzero;stroke:none"
         inkscape:connector-curvature="0" />
    </g>
    <g
       transform="matrix(5.9452895,0,0,-5.9452895,732.71436,-336.41604)"
       id="g3683"
       style="fill:#959da0;fill-opacity:1">
      <path
         d="m 0,0 -3.255,0 0.905,3.518 3.168,0 C 1.813,3.518 2.386,3.136 2.386,2.329 2.386,1.236 1.671,0 0,0 m 9.711,4.489 c 0,2.402 -0.691,3.777 -3.927,3.777 l -14.039,0 -4.638,-16.971 7.259,0 1.503,5.912 3.524,-5.912 8.496,0 -4.911,6.966 1.286,0 c 3.069,0 5.447,1.951 5.447,6.228"
         id="path3685"
         style="fill:#959da0;fill-opacity:1;fill-rule:nonzero;stroke:none"
         inkscape:connector-curvature="0" />
    </g>
    <g
       transform="matrix(5.9452895,0,0,-5.9452895,905.60041,-353.66333)"
       id="g3687"
       style="fill:#959da0;fill-opacity:1">
      <path
         d="m 0,0 1.404,5.365 -17.535,0 -4.381,-16.969 17.512,0 1.166,4.528 -10.137,0 0.406,1.525 10.137,0 0.952,3.667 -10.137,0 L -10.133,0 0,0 Z"
         id="path3689"
         style="fill:#959da0;fill-opacity:1;fill-rule:nonzero;stroke:none"
         inkscape:connector-curvature="0" />
    </g>
    <g
       transform="matrix(5.9452895,0,0,-5.9452895,981.19536,-356.45464)"
       id="g3691"
       style="fill:#959da0;fill-opacity:1">
      <path
         d="m 0,0 c 2.333,0 4.617,-0.234 6.926,-0.514 l 1.501,5.24 C 4.951,5.248 1.119,5.369 -1.26,5.369 c -1.764,0 -4.071,-0.05 -5.67,-0.498 -2.852,-0.808 -4.754,-3.776 -4.754,-7.412 0,-2.665 2.404,-3.405 4.59,-3.405 4.262,0 4.69,-0.161 4.69,-0.978 0,-1.091 -1.664,-1.091 -2.453,-1.091 -2.733,0 -5.427,0.208 -8.136,0.535 l -1.075,-4.276 c 3.162,-0.571 6.405,-0.785 10.213,-0.785 4.689,0 7.069,0.452 8.543,2.834 0.504,0.808 1.121,2.645 1.121,3.953 0,3.568 -2.384,3.687 -5.095,3.687 -3.738,0 -4.211,0.187 -4.211,0.869 C -3.497,-0.399 -2.832,0 0,0"
         id="path3693"
         style="fill:#959da0;fill-opacity:1;fill-rule:nonzero;stroke:none"
         inkscape:connector-curvature="0" />
    </g>
    <g
       transform="matrix(5.9452895,0,0,-5.9452895,436.8066,-179.05018)"
       id="g3695"
       style="fill:#959da0;fill-opacity:1">
      <path
         d="m 0,0 c -0.089,-0.299 -0.252,-1.258 1.111,-1.263 l 1.042,0 -0.358,-1.318 -1.427,0 c -2.088,0 -2.58,1.405 -2.101,3.016 l 1.993,7.396 1.845,0 -0.625,-2.333 2.49,0 -0.352,-1.32 -2.49,0 L 0,0 Z"
         id="path3697"
         style="fill:#959da0;fill-opacity:1;fill-rule:nonzero;stroke:none"
         inkscape:connector-curvature="0" />
    </g>
    <g
       transform="matrix(5.9452895,0,0,-5.9452895,473.53006,-179.49845)"
       id="g3699"
       style="fill:#959da0;fill-opacity:1">
      <path
         d="m 0,0 c -0.185,-0.7 0.161,-1.346 1.401,-1.33 l 1.061,0 C 3.802,-1.329 4.37,-0.884 4.625,0 L 5.359,2.717 C 5.627,3.664 5.304,4.25 4.036,4.225 L 2.853,4.226 C 1.544,4.215 0.876,3.458 0.668,2.551 L 0,0 Z M 6.415,-0.193 C 6.046,-1.718 5.245,-2.657 2.861,-2.657 l -2.344,0 c -1.862,0 -2.812,1.034 -2.431,2.464 l 0.855,3.188 c 0.408,1.67 1.893,2.559 3.769,2.546 l 1.975,0 C 6.661,5.554 7.676,4.56 7.237,2.834 L 6.415,-0.193 Z"
         id="path3701"
         style="fill:#959da0;fill-opacity:1;fill-rule:nonzero;stroke:none"
         inkscape:connector-curvature="0" />
    </g>
    <g
       transform="matrix(5.9452895,0,0,-5.9452895,202.93734,-203.93656)"
       id="g3703"
       style="fill:#959da0;fill-opacity:1">
      <path
         d="m 0,0 c -1.216,0.005 -1.973,-0.705 -2.168,-1.509 l -1.417,-5.258 -1.843,0 1.459,5.422 c 0.404,1.744 2.035,2.691 3.894,2.657 l 1.743,0 L 1.319,-0.001 0,0 Z"
         id="path3705"
         style="fill:#959da0;fill-opacity:1;fill-rule:nonzero;stroke:none"
         inkscape:connector-curvature="0" />
    </g>
    <g
       transform="matrix(5.9452895,0,0,-5.9452895,393.94642,-163.703)"
       id="g3707"
       style="fill:#959da0;fill-opacity:1">
      <path
         d="m 0,0 -1.852,-0.001 1.478,5.479 c 0.223,0.896 -0.157,1.309 -1.335,1.285 l -2.695,0 -1.82,-6.763 -1.849,0 2.177,8.08 4.442,0 C 0.929,8.08 1.95,7.134 1.449,5.391 L 0,0 Z"
         id="path3709"
         style="fill:#959da0;fill-opacity:1;fill-rule:nonzero;stroke:none"
         inkscape:connector-curvature="0" />
    </g>
    <g
       transform="matrix(5.9452895,0,0,-5.9452895,281.7267,-211.75521)"
       id="g3711"
       style="fill:#959da0;fill-opacity:1">
      <path
         d="M 0,0 -4.12,-6.603 -4.844,0 l -1.8,0 0.888,-8.08 2.519,0 L 1.811,0 0,0 Z"
         id="path3713"
         style="fill:#959da0;fill-opacity:1;fill-rule:nonzero;stroke:none"
         inkscape:connector-curvature="0" />
    </g>
    <g
       transform="matrix(5.9452895,0,0,-5.9452895,303.61607,-192.50437)"
       id="g3715"
       style="fill:#959da0;fill-opacity:1">
      <path
         d="M 0,0 4.673,-0.003 4.85,0.67 C 5.031,1.357 4.659,2.038 3.4,2.018 l -1.142,0 C 1.195,2.038 0.371,1.454 0.184,0.665 L 0,0 Z m -0.46,-1.709 c -0.294,-1.209 0.687,-1.803 2.254,-1.798 l 3.596,-10e-4 -0.36,-1.336 -3.959,0 c -2.461,0 -3.884,1.238 -3.368,3.189 l 0.651,2.411 c 0.401,1.615 1.866,2.62 3.957,2.597 l 1.63,0 C 6.1,3.372 7.108,2.242 6.715,0.756 l -0.542,-2.09 -6.533,0 -0.1,-0.375 z"
         id="path3717"
         style="fill:#959da0;fill-opacity:1;fill-rule:nonzero;stroke:none"
         inkscape:connector-curvature="0" />
    </g>
    <g
       transform="matrix(5.9452895,0,0,-5.9452895,614.95839,-192.50437)"
       id="g3719"
       style="fill:#959da0;fill-opacity:1">
      <path
         d="M 0,0 4.673,-0.003 4.848,0.67 C 5.032,1.357 4.659,2.038 3.401,2.018 l -1.142,0 C 1.195,2.038 0.371,1.454 0.186,0.665 L 0,0 Z m -0.459,-1.709 c -0.295,-1.209 0.686,-1.803 2.254,-1.798 l 3.595,-10e-4 -0.359,-1.336 -3.961,0 c -2.46,0 -3.883,1.238 -3.366,3.189 l 0.65,2.411 c 0.401,1.615 1.867,2.62 3.957,2.597 l 1.63,0 C 6.101,3.372 7.107,2.242 6.714,0.756 l -0.541,-2.09 -6.533,0 -0.099,-0.375 z"
         id="path3721"
         style="fill:#959da0;fill-opacity:1;fill-rule:nonzero;stroke:none"
         inkscape:connector-curvature="0" />
    </g>
    <g
       transform="matrix(5.9452895,0,0,-5.9452895,283.54952,-247.69805)"
       id="g3723"
       style="fill:#959da0;fill-opacity:1">
      <path
         d="M 0,0 -9.348,-2.769 -9.832,-4.591 -0.471,-1.758 0,0 Z"
         id="path3725"
         style="fill:#959da0;fill-opacity:1;fill-rule:nonzero;stroke:none"
         inkscape:connector-curvature="0" />
    </g>
    <g
       transform="matrix(5.9452895,0,0,-5.9452895,209.79048,-163.703)"
       id="g3727"
       style="fill:#959da0;fill-opacity:1">
      <path
         d="m 0,0 1.849,0 2.176,8.079 -1.847,0 L 0,0 Z"
         id="path3729"
         style="fill:#959da0;fill-opacity:1;fill-rule:nonzero;stroke:none"
         inkscape:connector-curvature="0" />
    </g>
    <g
       transform="matrix(5.9452895,0,0,-5.9452895,750.04607,-179.49845)"
       id="g3731"
       style="fill:#959da0;fill-opacity:1">
      <path
         d="m 0,0 c -0.185,-0.7 0.161,-1.346 1.402,-1.33 l 1.06,0 C 3.802,-1.329 4.369,-0.884 4.625,0 L 5.36,2.717 C 5.627,3.664 5.304,4.25 4.036,4.225 L 2.853,4.226 C 1.545,4.215 0.877,3.458 0.668,2.551 L 0,0 Z M 6.415,-0.193 C 6.046,-1.718 5.245,-2.657 2.861,-2.657 l -2.343,0 c -1.864,0 -2.813,1.034 -2.433,2.464 l 0.857,3.188 c 0.406,1.67 1.892,2.559 3.768,2.546 l 1.976,0 C 6.662,5.554 7.676,4.56 7.237,2.834 L 6.415,-0.193 Z"
         id="path3733"
         style="fill:#959da0;fill-opacity:1;fill-rule:nonzero;stroke:none"
         inkscape:connector-curvature="0" />
    </g>
    <g
       transform="matrix(5.9452895,0,0,-5.9452895,690.78045,-203.93656)"
       id="g3735"
       style="fill:#959da0;fill-opacity:1">
      <path
         d="m 0,0 c -1.217,0.005 -1.973,-0.705 -2.167,-1.509 l -1.418,-5.258 -1.841,0 1.459,5.422 c 0.404,1.744 2.034,2.691 3.892,2.657 l 1.743,0 L 1.32,-0.001 0,0 Z"
         id="path3737"
         style="fill:#959da0;fill-opacity:1;fill-rule:nonzero;stroke:none"
         inkscape:connector-curvature="0" />
    </g>
    <g
       transform="matrix(5.9452895,0,0,-5.9452895,736.09961,-226.26291)"
       id="g3739"
       style="fill:#959da0;fill-opacity:1">
      <path
         d="m 0,0 1.391,-0.001 0.348,1.313 -1.813,0 C -1.933,1.346 -3.563,0.398 -3.968,-1.346 l -2.465,-9.177 1.841,0 1.819,6.766 2.706,0 0.347,1.317 -2.698,0 0.25,0.931 C -1.974,-0.703 -1.218,0.005 0,0"
         id="path3741"
         style="fill:#959da0;fill-opacity:1;fill-rule:nonzero;stroke:none"
         inkscape:connector-curvature="0" />
    </g>
    <g
       transform="matrix(5.9452895,0,0,-5.9452895,827.44304,-203.93656)"
       id="g3743"
       style="fill:#959da0;fill-opacity:1">
      <path
         d="m 0,0 c -1.216,0.005 -1.973,-0.705 -2.169,-1.509 l -1.416,-5.258 -1.841,0 1.458,5.422 c 0.405,1.744 2.035,2.691 3.893,2.657 l 1.743,0 L 1.32,-0.001 0,0 Z"
         id="path3745"
         style="fill:#959da0;fill-opacity:1;fill-rule:nonzero;stroke:none"
         inkscape:connector-curvature="0" />
    </g>
    <g
       transform="matrix(5.9452895,0,0,-5.9452895,892.5719,-211.74094)"
       id="g3747"
       style="fill:#959da0;fill-opacity:1">
      <path
         d="m 0,0 -7.491,0 -2.175,-8.08 1.848,0 1.82,6.762 2.685,0 -1.824,-6.762 1.838,0 1.823,6.762 1.222,0 c 1.177,0.025 1.557,-0.388 1.333,-1.284 l -1.476,-5.479 1.851,10e-4 1.448,5.391 C 3.403,-0.946 2.383,0 0,0"
         id="path3749"
         style="fill:#959da0;fill-opacity:1;fill-rule:nonzero;stroke:none"
         inkscape:connector-curvature="0" />
    </g>
    <g
       transform="matrix(5.9452895,0,0,-5.9452895,583.05597,-195.64942)"
       id="g3751"
       style="fill:#959da0;fill-opacity:1">
      <path
         d="M 0,0 -0.734,-2.717 C -0.99,-3.6 -1.558,-4.046 -2.895,-4.047 l -1.062,0 c -1.241,-0.015 -1.585,0.631 -1.4,1.33 l 0.667,2.551 c 0.209,0.907 0.876,1.664 2.186,1.676 l 1.18,-0.001 C -0.054,1.533 0.267,0.947 0,0 m -8.913,-8.973 1.849,0 1.147,4.218 c 0.154,-0.335 0.649,-0.619 1.447,-0.618 l 1.973,0 c 2.383,0 3.185,0.938 3.554,2.464 l 0.821,3.026 c 0.439,1.727 -0.575,2.72 -2.551,2.707 l -1.976,0 C -4.523,2.837 -6.01,1.949 -6.417,0.278 l -2.496,-9.251 z"
         id="path3753"
         style="fill:#959da0;fill-opacity:1;fill-rule:nonzero;stroke:none"
         inkscape:connector-curvature="0" />
    </g>
    <g
       transform="matrix(5.9452895,0,0,-5.9452895,157.09976,-195.31411)"
       id="g3755"
       style="fill:#959da0;fill-opacity:1">
      <path
         d="m 0,0 -0.721,-2.66 c -0.256,-0.884 -0.824,-1.329 -2.163,-1.331 l -1.061,0 c -1.241,-0.015 -1.587,0.631 -1.402,1.331 l 0.684,2.551 c 0.207,0.907 0.86,1.664 2.17,1.675 L -1.311,1.565 C -0.042,1.589 0.253,0.932 0,0 m 3.61,6.545 -1.844,0 -1.161,-4.284 c -0.328,0.663 -1.793,0.607 -2.253,0.62 l -0.988,0 C -4.513,2.894 -5.982,2.005 -6.39,0.334 l -0.857,-3.187 c -0.381,-1.431 0.555,-2.464 2.418,-2.464 l 2.344,0 c 2.383,0 3.172,0.918 3.553,2.464 L 3.61,6.545 Z"
         id="path3757"
         style="fill:#959da0;fill-opacity:1;fill-rule:nonzero;stroke:none"
         inkscape:connector-curvature="0" />
    </g>
  </g>
</svg>
