<?xml version="1.0" encoding="UTF-8" standalone="no"?>
<svg
   xmlns:dc="http://purl.org/dc/elements/1.1/"
   xmlns:cc="http://creativecommons.org/ns#"
   xmlns:rdf="http://www.w3.org/1999/02/22-rdf-syntax-ns#"
   xmlns:svg="http://www.w3.org/2000/svg"
   xmlns="http://www.w3.org/2000/svg"
   xmlns:sodipodi="http://sodipodi.sourceforge.net/DTD/sodipodi-0.dtd"
   xmlns:inkscape="http://www.inkscape.org/namespaces/inkscape"
   version="1.0"
   width="2708.0129pt"
   height="1328.4287pt"
   viewBox="0 0 2708.0129 1328.4287"
   preserveAspectRatio="xMidYMid meet"
   id="svg2"
   inkscape:version="0.91 r13725"
   sodipodi:docname="brand-icon-RoemersTireFactory.svg">
  <defs
     id="defs90" />
  <sodipodi:namedview
     pagecolor="#ffffff"
     bordercolor="#666666"
     borderopacity="1"
     objecttolerance="10"
     gridtolerance="10"
     guidetolerance="10"
     inkscape:pageopacity="0"
     inkscape:pageshadow="2"
     inkscape:window-width="1472"
     inkscape:window-height="893"
     id="namedview88"
     showgrid="false"
     showguides="true"
     inkscape:guide-bbox="true"
     inkscape:zoom="0.17244444"
     inkscape:cx="1482.9332"
     inkscape:cy="477.74333"
     inkscape:window-x="0"
     inkscape:window-y="0"
     inkscape:window-maximized="1"
     inkscape:current-layer="flowRoot4272"
     fit-margin-top="0"
     fit-margin-left="0"
     fit-margin-right="0"
     fit-margin-bottom="0">
    <sodipodi:guide
       position="1955.1138,1216.8953"
       orientation="0,1"
       id="guide4258" />
    <sodipodi:guide
       position="1377.7648,895.41688"
       orientation="1,0"
       id="guide4260" />
    <sodipodi:guide
       position="1761.5707,1043.0345"
       orientation="0,1"
       id="guide4262" />
    <sodipodi:guide
       position="1312.1569,1351.3914"
       orientation="1,0"
       id="guide4282" />
  </sodipodi:namedview>
  <metadata
     id="metadata4">
Created by potrace 1.13, written by Peter Selinger 2001-2015
<rdf:RDF>
  <cc:Work
     rdf:about="">
    <dc:format>image/svg+xml</dc:format>
    <dc:type
       rdf:resource="http://purl.org/dc/dcmitype/StillImage" />
    <dc:title></dc:title>
  </cc:Work>
</rdf:RDF>
</metadata>
  <g
     style="font-style:normal;font-variant:normal;font-weight:normal;font-stretch:normal;font-size:293.30892944px;line-height:125%;font-family:'Franklin Gothic Heavy';-inkscape-font-specification:'Franklin Gothic Heavy, ';letter-spacing:0px;word-spacing:0px;fill:#000000;fill-opacity:1;stroke:none;stroke-width:1px;stroke-linecap:butt;stroke-linejoin:miter;stroke-opacity:1"
     id="flowRoot4272">
    <g
       id="g5177">
      <g
         transform="translate(0,66.558876)"
         style="fill:#b22121;fill-opacity:1"
         id="g4362">
        <path
           style="fill:#b22121;fill-opacity:1;stroke:none"
           inkscape:connector-curvature="0"
           id="path42"
           d="m 1112,384 0,96 46,0 46,0 0,-55.5 0,-55.5 40,0 40,0 0,158 0,158 -40,0 -40,0 0.2,40.2 0.3,40.3 148.5,0 148.5,0 0.3,-40.3 0.2,-40.2 -40,0 -40,0 0,-158 0,-158 40,0 40,0 0,55.5 0,55.5 46,0 46,0 0,-96 0,-96 -241,0 -241,0 0,96 z" />
        <path
           style="fill:#b22121;fill-opacity:1;stroke:none"
           inkscape:connector-curvature="0"
           id="path50"
           d="m 1626.7,410.7 c -0.4,0.3 -0.7,13.8 -0.7,30 l 0,29.3 30,0 30,0 0,117.5 0,117.5 -29.7,0.2 -29.8,0.3 0,30 0,30 111,0 111,0 0,-30 0,-30 -29.7,-0.3 -29.8,-0.2 0,-117.5 0,-117.5 30,0 30,0 -0.2,-29.8 -0.3,-29.7 -110.6,-0.3 c -60.8,-0.1 -110.9,0.1 -111.2,0.5 z" />
        <path
           style="fill:#b22121;fill-opacity:1;stroke:none"
           inkscape:connector-curvature="0"
           id="path52"
           d="m 1884,440 0,30 27,0 27,0 0,117.5 0,117.5 -27,0 -27,0 0,30.5 0,30.5 103,0 103,0 0,-30.5 0,-30.5 -24.5,0 -24.5,0 0,-47.5 0,-47.4 22.1,-0.3 c 12.2,-0.2 22.4,-0.1 22.8,0.2 0.4,0.3 7,11.5 14.6,25 7.6,13.5 16.8,29.7 20.5,36 3.7,6.3 12.7,22.1 20,35 7.3,12.9 17.9,31.7 23.7,41.7 l 10.5,18.3 59.9,0 59.9,0 0,-30.5 0,-30.5 -25.7,0 -25.8,-0.1 -31.6,-53.2 -31.6,-53.2 10.1,-5 c 30.8,-15.4 47.1,-33.3 54.8,-60.2 3.2,-11.2 3.2,-35 0,-47.3 -4.5,-17.1 -13.4,-32.3 -26.3,-44.5 -16.1,-15.3 -35.1,-24.2 -62.4,-29.2 -8,-1.5 -22.9,-1.7 -140.7,-2 l -131.8,-0.4 0,30.1 z m 215.7,31 c 20.9,2.2 34.4,11.9 39.4,28.3 5.4,17.4 -1.3,34.6 -17,44.1 -12.1,7.3 -26,9.6 -59.3,9.6 l -21.8,0 0,-41.5 0,-41.5 24.8,0 c 13.6,0 28.8,0.5 33.9,1 z" />
        <path
           style="fill:#b22121;fill-opacity:1;stroke:none"
           inkscape:connector-curvature="0"
           id="path54"
           d="m 2321,440 0,30 23,0 23,0 0,117.5 0,117.5 -23,0 -23,0 0,30.5 0,30.5 173,0 173,0 0,-56.5 0,-56.5 -37,0 -37,0 0,26 0,26 -61.5,0 -61.5,0 0,-46.5 0,-46.5 49.3,-0.2 49.2,-0.3 0.3,-29.8 0.2,-29.7 -49.5,0 -49.5,0 0,-41 0,-41 61.3,0.2 61.2,0.3 0.3,26.2 0.2,26.3 37,0 37,0 0,-56.5 0,-56.5 -173,0 -173,0 0,30 z" />
      </g>
      <g
         transform="translate(0,66.558876)"
         style="fill:#1d4480;fill-opacity:1"
         id="g4324">
        <path
           style="fill:#1d4480;fill-opacity:1;stroke:none"
           inkscape:connector-curvature="0"
           id="path8"
           d="m 883.8,6.1 c -26.1,10.2 -49.4,21.6 -75.9,37 -14.6,8.5 -34.1,21.2 -31.4,20.5 1.1,-0.3 16.9,-4.3 35,-8.9 31.3,-8 105.3,-27 152.9,-39.2 13.5,-3.5 25.4,-7.2 31.3,-9.8 l 9.4,-4.2 -6.8,-0.2 C 994.6,1.1 970.5,0.9 944.8,0.8 L 898.1,0.5 883.8,6.1 Z" />
        <path
           style="fill:#1d4480;fill-opacity:1;stroke:none"
           inkscape:connector-curvature="0"
           id="path10"
           d="m 804.5,5.9 c -87.2,34.2 -177.1,98 -247.4,175.6 -58.5,64.7 -101.6,132 -145.3,227 -45.5,98.8 -81.8,213.6 -104.2,329.4 -2,10.1 -3.6,19 -3.6,19.7 0,1.2 5.7,1.4 32.8,1.4 l 32.9,0 4.2,-21.3 C 402.2,595.5 444.4,468.9 503,350.5 c 22.6,-45.6 39.5,-75.1 61.8,-108 71.1,-105 155.7,-181.9 253.6,-230.6 l 22,-10.9 -12,0.1 c -11.7,0.1 -12.1,0.1 -23.9,4.8 z" />
        <path
           style="fill:#1d4480;fill-opacity:1;stroke:none"
           inkscape:connector-curvature="0"
           id="path12"
           d="m 1101.5,7 c -35.7,6 -41.9,7.6 -64.4,16.6 -13.6,5.5 -47.4,21.4 -46.8,22.1 0.2,0.2 11.2,-1.5 24.3,-3.7 54.5,-9.1 89.5,-12.5 130.4,-12.5 l 30.5,0 39.8,17.1 39.7,17.1 11.3,-3.9 c 13.8,-4.8 35.4,-10.1 50.7,-12.4 14.8,-2.3 44.7,-2.3 60.9,-0.1 6.3,0.9 11.7,1.5 11.9,1.3 1.1,-1.1 -43,-16.4 -66.5,-23 C 1271.7,11 1226.8,3.4 1182.5,2 c -43.2,-1.5 -43.1,-1.5 -81,5 z" />
        <path
           style="fill:#1d4480;fill-opacity:1;stroke:none"
           inkscape:connector-curvature="0"
           id="path14"
           d="m 720.5,3.3 c -16.5,0.5 -30.1,1 -30.2,1.1 -0.3,0.2 6,16.8 8.7,23.4 l 1,2.3 9.2,-5 c 10,-5.3 29.1,-14.1 41.6,-19.1 4.2,-1.7 7.9,-3.3 8.1,-3.6 0.2,-0.2 -1.6,-0.3 -4,-0.2 -2.4,0.1 -17.9,0.5 -34.4,1.1 z" />
        <path
           style="fill:#1d4480;fill-opacity:1;stroke:none"
           inkscape:connector-curvature="0"
           id="path16"
           d="m 653.5,22.4 c -16,5.8 -31.5,12.7 -53.8,23.9 -16.4,8.2 -21.7,11.3 -21.3,12.4 1.3,3.2 23.2,38.2 24,38.3 0.4,0 4.2,-2.9 8.5,-6.3 16.3,-13.6 44.3,-33.3 58.1,-40.8 3.3,-1.9 6,-3.8 6,-4.4 0,-0.5 -2.1,-6.7 -4.7,-13.7 C 667,22.6 665.2,19 664.1,19 c -0.9,0.1 -5.6,1.6 -10.6,3.4 z" />
        <path
           style="fill:#1d4480;fill-opacity:1;stroke:none"
           inkscape:connector-curvature="0"
           id="path18"
           d="M 519.5,48.5 C 497.6,57.3 468,72.3 452.6,82.3 l -12.8,8.4 13.4,4.7 c 7.3,2.5 13.8,4.6 14.5,4.6 0.6,0 4.1,-2.5 7.7,-5.5 11.2,-9.6 38.5,-29.6 54.4,-40 15.1,-9.9 15.2,-10 12.5,-11.2 -4.5,-1.9 -5.9,-1.6 -22.8,5.2 z" />
        <path
           style="fill:#1d4480;fill-opacity:1;stroke:none"
           inkscape:connector-curvature="0"
           id="path20"
           d="m 896.5,50.5 c -16.5,4 -46.3,11.1 -66.3,15.9 -19.9,4.8 -41.7,10 -48.4,11.6 -11.1,2.7 -12.3,2.8 -13.9,1.4 -1.6,-1.4 -1.6,-2 -0.3,-6.2 0.7,-2.6 1.4,-4.8 1.4,-5 0,-1.3 -33.4,24 -48.8,37 -12.8,10.8 -47.5,42.9 -46.9,43.4 0.2,0.3 16.6,-5.2 36.3,-12.2 36.6,-12.8 68.6,-24 91.9,-32.1 7.2,-2.5 21.3,-7.4 31.4,-11 10.2,-3.5 25.8,-8.8 34.7,-11.8 14.9,-4.9 16.8,-5.8 24.5,-11.8 4.6,-3.5 14.5,-10.6 21.9,-15.7 15.4,-10.6 15.9,-11 14,-10.9 -0.8,0.1 -15,3.4 -31.5,7.4 z" />
        <path
           style="fill:#1d4480;fill-opacity:1;stroke:none"
           inkscape:connector-curvature="0"
           id="path22"
           d="m 1129.5,45.6 c -47.6,2.4 -104.4,10.1 -170,23 l -13,2.6 -11.4,8.1 c -22.1,15.9 -55.2,43.5 -50.6,42.3 50.8,-13.4 118.5,-26.2 156,-29.6 6.6,-0.6 14,-1.2 16.5,-1.5 3.5,-0.3 7.6,0.7 18,4.2 18.6,6.3 42.1,16.2 56.6,23.8 l 12,6.3 4,-3 c 17,-13 49,-32.1 71.2,-42.4 7.4,-3.5 13.6,-6.5 13.8,-6.7 0.3,-0.2 -6.6,-3.5 -15.3,-7.2 -8.7,-3.7 -22.4,-9.6 -30.4,-13.1 l -14.5,-6.3 -18,-0.4 c -9.8,-0.3 -21,-0.3 -24.9,-0.1 z" />
        <path
           style="fill:#1d4480;fill-opacity:1;stroke:none"
           inkscape:connector-curvature="0"
           id="path24"
           d="M 541.4,81.8 C 517.3,98 478,127.4 478,129.2 c 0,0.4 7.5,14.3 16.7,30.9 l 16.6,30.1 3.6,-4.3 c 12.8,-15.6 27.4,-31.4 47.8,-51.7 L 586,111 573.9,90.7 c -6.7,-11.1 -12.5,-20.5 -12.8,-20.9 -0.4,-0.4 -9.2,5 -19.7,12 z" />
        <path
           style="fill:#1d4480;fill-opacity:1;stroke:none"
           inkscape:connector-curvature="0"
           id="path26"
           d="m 1347.5,70.1 c -69,7.1 -137.2,41.2 -209,104.4 -65.7,57.9 -123.2,141.1 -176.8,255.5 -13.3,28.2 -33.9,76 -40.4,93.5 -17.4,46.4 -37,111.9 -48.4,161.5 -4.6,19.8 -14.9,70.5 -14.9,73 0,1.4 1.8,1.8 11.7,2.3 6.4,0.4 11.8,0.5 11.9,0.4 0.2,-0.1 1.8,-7.5 3.8,-16.3 34.4,-157.3 97.4,-312.8 173.1,-426.9 20.7,-31.3 38.4,-54.2 64,-83 54.3,-61.2 113.6,-103 173.5,-122.3 70.3,-22.6 138.2,-17.4 209.4,16.2 21.7,10.2 48.1,26.5 71.1,43.9 l 12,9.1 -4.9,-6 c -17,-20.5 -50.3,-48.6 -77.9,-65.8 C 1456.5,79 1399.6,64.7 1347.5,70.1 Z" />
        <path
           style="fill:#1d4480;fill-opacity:1;stroke:none"
           inkscape:connector-curvature="0"
           id="path28"
           d="m 417.1,109.7 c -8.2,0.4 -6.8,-0.4 -25,13.1 -13.9,10.4 -31.4,24.8 -48.3,40 -11.7,10.5 -13.8,13.2 -10.5,13.2 0.7,0 10.7,3.1 22.3,7 11.7,3.8 21.6,7 22.2,7 0.5,0 6.6,-6.4 13.5,-14.3 13.4,-15.2 33.1,-35.5 49,-50.5 l 9.8,-9.2 -2.8,-1.1 c -11,-4.3 -16.5,-5.9 -19.4,-5.7 -1.9,0.1 -6.7,0.4 -10.8,0.5 z" />
        <path
           style="fill:#1d4480;fill-opacity:1;stroke:none"
           inkscape:connector-curvature="0"
           id="path30"
           d="m 1031.5,112.1 c -44.4,5.2 -93.9,15.1 -154.4,31 -12.4,3.3 -23.4,6.2 -24.3,6.5 -2.2,0.7 -22.4,22.5 -37.5,40.5 -12.8,15.4 -28.3,35.2 -27.9,35.6 0.1,0.2 16.4,-5.1 36.2,-11.6 47,-15.7 77.5,-24.8 106.8,-32.1 22.1,-5.5 46.8,-10 55.1,-10 5.4,0 40.9,13.6 64.5,24.7 l 11.4,5.4 5.5,-6.3 c 13.4,-15.4 40.5,-41.8 57.6,-56.1 l 2.9,-2.5 -7.4,-3.7 c -10.3,-5.2 -20.6,-9.5 -40.5,-17.1 -19.7,-7.4 -20.7,-7.5 -48,-4.3 z" />
        <path
           style="fill:#1d4480;fill-opacity:1;stroke:none"
           inkscape:connector-curvature="0"
           id="path32"
           d="m 756,137.6 c -48.1,14.5 -88.1,26.4 -88.8,26.4 -1.4,0 -0.8,-3.8 1.5,-8.3 0.8,-1.6 1.3,-3 1.1,-3.2 -0.5,-0.5 -23.5,24.5 -34.5,37.5 -20.7,24.5 -39.8,50.2 -57.5,77.5 -52,80.1 -102.7,193.7 -138.3,310 -17.7,57.8 -35.4,129.7 -43.9,177.8 l -0.7,3.7 14.3,0 14.3,-0.1 12,-11.6 c 6.6,-6.4 25.7,-24.9 42.5,-41.2 31,-30.1 43.3,-42 59.5,-57.2 18.2,-17.1 22.2,-20.7 29.6,-27.1 4.1,-3.5 7.4,-6.9 7.2,-7.4 -0.4,-1.1 9.2,-33.6 17.5,-59.9 7.3,-22.6 20.8,-61.1 27.3,-77.8 1,-2.6 1.7,-4.7 1.4,-4.7 -0.4,0 -23.1,16.9 -138,102.8 -19.2,14.3 -35.4,25.7 -35.8,25.3 -0.4,-0.4 -1,-3.9 -1.3,-7.7 l -0.5,-6.9 20.7,-17.5 c 11.5,-9.6 38.4,-32.3 59.9,-50.5 77.9,-65.8 109.5,-92.4 112.8,-94.9 2.1,-1.6 4.2,-4.7 5.7,-8.3 5.7,-14 21.3,-47.7 32.6,-70.3 6.7,-13.5 12.1,-24.7 11.9,-24.9 -0.3,-0.3 -17.2,8.8 -42.5,22.9 -7.6,4.3 -34.3,18.8 -86,46.8 -26.1,14.1 -44.9,23.4 -46.8,23 -2.4,-0.5 -4,-9.5 -2.1,-11.2 0.8,-0.7 12,-7.8 24.9,-15.8 12.9,-8 51.6,-32 85.9,-53.3 34.3,-21.3 69.3,-42.8 77.6,-47.8 12.5,-7.6 15.6,-9.9 17.5,-13.2 4.6,-8.1 29,-44.3 37.9,-56.3 5,-6.7 9.1,-12.4 9.1,-12.6 0,-0.3 -5.7,2 -12.7,4.9 -103.2,43 -146,60.3 -154.3,62.5 -4.4,1.2 -4.4,1.2 -7.2,-2.2 -4.9,-5.9 -4.2,-6.7 14.7,-15.2 8.3,-3.8 35.7,-16.3 61,-27.8 43.9,-20 79.7,-36.3 111.6,-50.7 l 14.6,-6.6 8.3,-9.5 c 4.6,-5.2 16.6,-17.7 26.6,-27.8 10,-10 17.9,-18.2 17.6,-18.1 -0.4,0.1 -40.1,12 -88.2,26.5 z" />
        <path
           style="fill:#1d4480;fill-opacity:1;stroke:none"
           inkscape:connector-curvature="0"
           id="path34"
           d="m 435.9,170.7 c -29.7,30 -47.1,49.3 -46.5,51.5 0.4,1.9 45.7,78 46.1,77.6 0.2,-0.2 3.4,-5.5 7.2,-11.8 14.2,-23.4 32.6,-51.1 45.5,-68.3 3.2,-4.3 5.8,-8.2 5.8,-8.8 0,-1.5 -34.1,-62.9 -34.9,-62.9 -0.4,0 -10.8,10.2 -23.2,22.7 z" />
        <path
           style="fill:#1d4480;fill-opacity:1;stroke:none"
           inkscape:connector-curvature="0"
           id="path36"
           d="m 980,194.7 c -1.4,0.2 -8,1.3 -14.6,2.4 -31.7,5.2 -96,24.2 -175.7,51.9 l -26.3,9.2 -5.9,9.2 c -19.3,30 -49.7,83.7 -48.2,85.2 0.2,0.2 7.3,-2.8 15.8,-6.7 71.9,-33.1 136.7,-56.3 175.5,-62.8 6.9,-1.2 7.4,-1.1 25.4,3.4 19.9,5 44.2,12.7 54.1,17.1 4,1.8 6.3,2.4 6.7,1.7 20.4,-32.7 30.4,-47.5 49,-71.7 6.2,-8.1 11.2,-14.9 11,-15 -1.5,-1 -62.2,-24.6 -63.1,-24.5 -0.7,0.1 -2.3,0.4 -3.7,0.6 z" />
        <path
           style="fill:#1d4480;fill-opacity:1;stroke:none"
           inkscape:connector-curvature="0"
           id="path38"
           d="m 313.5,199.3 -10,1.9 -21.2,24.2 c -19.3,21.9 -42.2,50 -42.3,51.8 0,0.5 2.5,0.8 5.6,0.8 6,0 6.6,0.3 39.7,18.3 7.1,3.8 13.2,6.5 13.6,6.1 0.4,-0.5 3.6,-5.6 7.1,-11.4 10.3,-17 30.9,-47.3 44.4,-65 l 12.4,-16.5 -17.5,-5.7 c -9.6,-3.1 -18.5,-5.8 -19.7,-6.1 -1.1,-0.2 -6.6,0.5 -12.1,1.6 z" />
        <path
           style="fill:#1d4480;fill-opacity:1;stroke:none"
           inkscape:connector-curvature="0"
           id="path40"
           d="m 359.3,262.4 c -12.6,17.7 -26.3,38.7 -37,56.6 -10.8,18.1 -12.6,21.8 -11.9,24.5 0.5,2 22.9,61.9 40.3,107.8 l 5.6,14.8 8.3,-20.1 c 13.4,-32.5 23.9,-55.6 39.6,-87.3 8.2,-16.4 14.7,-30.1 14.5,-30.5 -3.5,-6.5 -48.2,-80.2 -48.6,-80.2 -0.3,0 -5.2,6.5 -10.8,14.4 z" />
        <path
           style="fill:#1d4480;fill-opacity:1;stroke:none"
           inkscape:connector-curvature="0"
           id="path44"
           d="m 226.7,307.7 -8.8,0.4 -8.3,12.7 c -8.3,12.8 -23.5,38 -31.8,52.7 -9.8,17.5 -25.8,47.9 -25.8,49.2 0,0.5 4.6,2.2 10.1,3.7 l 10.1,2.7 17.5,15.2 c 26,22.6 27.5,23.9 28.4,23 0.4,-0.4 2.9,-6 5.5,-12.3 16.8,-41.3 38.1,-85 56.3,-115.9 3.4,-5.7 6,-10.5 5.9,-10.6 -0.2,-0.1 -9.4,-4.9 -20.4,-10.8 -18.4,-9.8 -20.6,-10.7 -25,-10.5 -2.7,0.1 -8.9,0.4 -13.7,0.5 z" />
        <path
           style="fill:#1d4480;fill-opacity:1;stroke:none"
           inkscape:connector-curvature="0"
           id="path46"
           d="m 899,308.5 c -34.4,7 -81.3,23.5 -142.5,50.2 -22.1,9.7 -63.8,29.3 -65.2,30.6 -1.5,1.5 -16.3,34.7 -25.5,57.2 -12.2,29.9 -35.5,93.2 -34.6,94.1 0.2,0.1 3.7,-2.3 7.8,-5.3 55.4,-40.5 128.5,-83.5 184.8,-108.7 l 10.3,-4.6 8.4,1 c 21.3,2.6 49.4,9.1 65.4,14.9 4.7,1.7 8.6,3 8.7,2.8 0.3,-0.2 2.4,-4.8 11.6,-24.7 10,-21.5 29.8,-59.7 41.1,-78.9 3.1,-5.2 5.4,-9.8 5.1,-10.3 -1.2,-1.9 -63,-20 -67.3,-19.7 -0.9,0 -4.5,0.7 -8.1,1.4 z" />
        <path
           style="fill:#1d4480;fill-opacity:1;stroke:none"
           inkscape:connector-curvature="0"
           id="path48"
           d="m 283,392.8 c -13.1,26.6 -26.9,57.6 -38.3,86.2 -13.3,33.6 -13.4,33.8 -11.4,38.7 4.1,10.4 43.7,92.8 59.4,123.7 l 5,9.9 2.2,-8.9 c 7.6,-30.7 20.2,-73.7 32,-109.1 l 8.9,-26.9 -13,-34.4 c -7.1,-19 -18.1,-48.2 -24.4,-65 -6.3,-16.7 -11.6,-30.5 -11.8,-30.7 -0.1,-0.2 -4,7.2 -8.6,16.5 z" />
        <path
           style="fill:#1d4480;fill-opacity:1;stroke:none"
           inkscape:connector-curvature="0"
           id="path56"
           d="m 137.1,453.3 c -13.8,30.5 -26.9,62.1 -36.3,87.6 -9.1,24.4 -21.7,62.6 -20.7,62.9 0.4,0.2 4.3,-0.3 8.6,-1.1 4.3,-0.9 9.3,-1.8 11,-2.1 3,-0.5 4.5,0.6 22,15.6 10.4,8.9 23.1,20 28.3,24.5 5.2,4.6 9.7,8.3 10,8.3 0.3,0 2,-6 3.9,-13.3 9.7,-38.1 27.1,-95.1 36.7,-120.7 3.1,-8 5.8,-15.2 6,-16.1 0.4,-1.1 -3.8,-5.3 -13.8,-14 -7.9,-6.8 -18.6,-16.3 -23.9,-21.1 -8.3,-7.5 -10.4,-8.9 -15.6,-10.2 -3.3,-0.9 -7.8,-2.2 -10.1,-3 l -4.2,-1.5 -1.9,4.2 z" />
        <path
           style="fill:#1d4480;fill-opacity:1;stroke:none"
           inkscape:connector-curvature="0"
           id="path58"
           d="m 834,453.3 c -20.8,9.9 -54.6,27.1 -69,35.2 -47.3,26.6 -100.6,61.9 -139.2,92.2 -12.1,9.5 -10.2,6 -17.7,32.3 -9.3,32.5 -29.2,115.4 -27.9,116.5 0.2,0.1 5.7,-3.6 12.3,-8.3 70.5,-50.4 135.6,-93.6 158.3,-105.2 6.9,-3.5 8.8,-4 14.6,-4 15.5,0 64.7,6.4 80,10.3 l 5.3,1.4 4.8,-17.6 c 11.9,-43.7 24,-78.5 41.4,-119.5 4.5,-10.4 8.1,-19.5 8.1,-20.1 0,-2 -28.7,-9.4 -52.5,-13.6 -13.3,-2.3 -12.9,-2.3 -18.5,0.4 z" />
        <path
           style="fill:#1d4480;fill-opacity:1;stroke:none"
           inkscape:connector-curvature="0"
           id="path60"
           d="m 215.8,559.2 c -0.8,2.9 -4.5,15 -8.1,26.8 -8.4,27.6 -16.1,55.8 -22.6,83.2 l -5.2,21.6 8.5,15.4 c 11,20.1 19.8,36.6 24.4,45.5 l 3.6,7.3 26.8,0.2 c 14.7,0.1 27.8,0.2 29,0.2 1.9,0.1 2.4,-0.6 3,-4.4 0.5,-2.5 3.4,-17.3 6.4,-33 l 5.7,-28.5 -11.4,-22 c -12,-23 -38.7,-77.5 -50.4,-102.8 -3.8,-8.1 -7.2,-14.7 -7.5,-14.7 -0.4,0 -1.4,2.4 -2.2,5.2 z" />
        <path
           style="fill:#1d4480;fill-opacity:1;stroke:none"
           inkscape:connector-curvature="0"
           id="path62"
           d="m 80.2,636.5 c -6.2,1.2 -11.4,2.4 -11.6,2.6 -2.1,2.3 -27,103.4 -28.8,116.9 l -0.3,2.5 49.1,0.3 49.1,0.2 2.2,-12.7 c 1.3,-7.1 4.3,-22.9 6.8,-35.3 2.6,-12.4 4.7,-23.4 4.7,-24.6 0.1,-1.5 -7.5,-8.7 -28.6,-27.2 -15.8,-13.9 -29.3,-25.1 -30,-25.1 -0.7,0.1 -6.4,1.1 -12.6,2.4 z" />
        <path
           style="fill:#1d4480;fill-opacity:1;stroke:none"
           inkscape:connector-curvature="0"
           id="path64"
           d="m 759.4,643.9 c -23.6,12.9 -80.1,50.7 -149.4,100 l -20.5,14.6 112.5,0.6 c 61.9,0.3 113.9,0.9 115.6,1.3 l 3.2,0.7 1.7,-9.3 c 5.2,-28.7 12.4,-61.9 19,-87.8 1.8,-7.4 3.2,-13.6 3.1,-13.8 -1.6,-1.5 -45.9,-7.4 -65.6,-8.7 -5.2,-0.4 -10.2,-0.8 -11,-1.1 -0.8,-0.2 -4.7,1.4 -8.6,3.5 z" />
        <path
           style="fill:#1d4480;fill-opacity:1;stroke:none"
           inkscape:connector-curvature="0"
           id="path66"
           d="m 552,670.3 c -7,5.9 -50,42.6 -93.9,80.1 l -9.5,8.1 46,0.5 c 25.2,0.3 45.9,0.5 46,0.5 0,0 2.2,-11 4.9,-24.5 2.6,-13.5 7.2,-35 10.1,-47.9 3,-12.9 5.2,-23.6 5.1,-23.7 -0.2,-0.2 -4.1,2.9 -8.7,6.9 z" />
        <path
           style="fill:#1d4480;fill-opacity:1;stroke:none"
           inkscape:connector-curvature="0"
           id="path68"
           d="m 170.1,740.2 c -1.4,7.3 -3.1,17 -3.1,18 0,0.4 3.8,0.8 8.5,0.8 4.7,0 8.5,-0.2 8.5,-0.5 0,-0.6 -11.9,-22.6 -12.5,-23.3 -0.2,-0.2 -0.8,2 -1.4,5 z" />
        <path
           style="fill:#1d4480;fill-opacity:1;stroke:none"
           inkscape:connector-curvature="0"
           id="path70"
           d="m 879.5,896.7 c -78.1,3.9 -140.7,39.7 -172.3,98.4 -8,14.9 -15.6,39.5 -18.3,58.9 -1.7,12.5 -1.5,39.4 0.5,53.1 9.8,68.8 52.2,119.2 118.6,141.3 29.3,9.7 52.6,13 92,13 32.2,0 45.7,-1.5 70.6,-7.9 23.6,-6 42.7,-14.4 60.5,-26.4 28,-18.8 47.8,-43.6 60.2,-75.6 5.5,-14.1 5.5,-13.1 0,-15.5 -22.1,-9.8 -72.5,-31.1 -72.8,-30.9 -0.2,0.3 -1.8,4.9 -3.5,10.4 -16.8,53.1 -58,83.2 -111,81.2 -30.3,-1.1 -53.4,-10.6 -73.1,-29.8 -15,-14.8 -25.4,-34.5 -30.6,-58.1 -2.6,-11.8 -2.6,-45.7 0,-57.5 11.1,-50.7 43.7,-82.1 93,-90 14.3,-2.2 40.2,-1.4 50.7,1.7 14.2,4.1 38.5,18.3 46.1,26.9 5.7,6.4 13.9,19 18.8,28.8 l 4.1,8.3 33.5,0 33.5,0 0,-62.5 0,-62.5 -33.5,0 -33.5,0 0,13.5 c 0,7.4 -0.3,13.5 -0.6,13.5 -0.3,0 -2.4,-1.3 -4.7,-2.9 -31.1,-21.3 -77.6,-32 -128.2,-29.4 z" />
        <path
           style="fill:#1d4480;fill-opacity:1;stroke:none"
           inkscape:connector-curvature="0"
           id="path72"
           d="m 1660,897.1 c -51.7,3.2 -96.6,18.8 -130.5,45.4 -12.2,9.6 -29.1,27.6 -37.3,39.9 -42.2,63 -38.6,146.2 8.8,206.1 6.6,8.3 22,23 31,29.6 37.7,27.7 82.9,41.8 139.5,43.6 75.9,2.3 138.1,-18.8 180,-61.2 24.1,-24.4 38.7,-52.1 46.2,-87.5 2.4,-11.2 2.7,-14.7 2.7,-33 0,-17.1 -0.3,-22.5 -2.2,-32.2 -11.1,-58.7 -48.3,-104.7 -104.9,-129.8 -27.7,-12.3 -55.8,-18.7 -91.8,-21 -17.6,-1.1 -22.9,-1.1 -41.5,0.1 z m 44,66.3 c 44.7,8.6 76.1,41.9 84.5,89.6 5.5,31.1 0.7,65 -12.5,89.7 -17.6,32.8 -49.4,52.1 -89.1,54 -25.2,1.2 -47.6,-4.7 -67,-17.7 -7.9,-5.4 -21.2,-18.6 -26.2,-26.3 -16.4,-24.8 -23.3,-56.1 -19.6,-89.5 6.2,-57.9 40.8,-94.6 95.9,-101.6 6.2,-0.8 26.3,0.3 34,1.8 z" />
        <path
           style="fill:#1d4480;fill-opacity:1;stroke:none"
           inkscape:connector-curvature="0"
           id="path74"
           d="m 0,932 0,30 28,0 28,0 0,117.5 0,117.5 -28,0 -28,0 0,30 0,30 109.5,0 109.5,0 0,-30 0,-30 -30,0 -30,0 0,-46 0,-46 42.5,0 42.5,0 0,-30.5 0,-30.5 -42.5,0 -42.5,0 0,-41 0,-41 59,0 59,0 0,24.5 0,24.5 38,0 38,0 0,-54.5 0,-54.5 -176.5,0 -176.5,0 0,30 z" />
        <path
           style="fill:#1d4480;fill-opacity:1;stroke:none"
           inkscape:connector-curvature="0"
           id="path76"
           d="m 381,932 0,30 26.6,0 c 20.9,0 26.5,0.3 26.1,1.2 -0.9,2.5 -38.1,115.8 -70.9,215.5 l -5.9,18.3 -24.5,0 -24.4,0 0,30 0,30 87.5,0 87.5,0 0,-30 0,-30 -26.4,-0.2 -26.4,-0.3 9.9,-28 c 5.4,-15.4 10.3,-29 10.9,-30.3 l 1,-2.2 50.7,0.2 50.8,0.3 9.2,30 c 5.1,16.5 9.3,30.1 9.3,30.2 0,0.2 -11,0.3 -24.5,0.3 l -24.5,0 0,30 0,30 95.5,0 95.5,0 0,-30 0,-30 -23.1,-0.2 -23.1,-0.3 -5.3,-15 C 657.7,1168.1 628.4,1084.6 597.4,996 591.1,978.1 586,963.2 586,962.8 c 0,-0.5 11.7,-0.8 26,-0.8 l 26,0 0,-30 0,-30 -128.5,0 -128.5,0 0,30 z m 135,80.3 c 13.8,46.7 21,71.1 21,71.4 0,0.2 -15.3,0.3 -34.1,0.3 -31.7,0 -34.1,-0.1 -33.5,-1.7 1.1,-2.7 29.5,-88.9 32.2,-97.6 1.4,-4.2 2.8,-7.7 3.2,-7.7 0.4,0 5.4,15.9 11.2,35.3 z" />
        <path
           style="fill:#1d4480;fill-opacity:1;stroke:none"
           inkscape:connector-curvature="0"
           id="path78"
           d="m 1093,973.5 0,71.5 34.5,0 34.5,0 0,-41.5 0,-41.5 29.5,0 29.5,0 0,117.5 0,117.5 -29.5,0 -29.5,0 0,30 0,30 110.5,0 110.5,0 0,-30 0,-30 -29.5,0 -29.5,0 0,-117.5 0,-117.5 29.3,0.2 29.2,0.3 0.3,41.2 0.2,41.3 34,0 34,0 0,-71.5 0,-71.5 -179,0 -179,0 0,71.5 z" />
        <path
           style="fill:#1d4480;fill-opacity:1;stroke:none"
           inkscape:connector-curvature="0"
           id="path80"
           d="m 1884,932 0,30 27,0 27,0 0,117.5 0,117.5 -27,0 -27,0 0,30 0,30 103,0 103,0 0,-30 0,-30 -24.5,0 -24.5,0 0,-48 0,-48 22.6,0.2 22.5,0.3 27.9,49 c 15.4,26.9 35.2,61.9 44.2,77.7 l 16.3,28.8 60.3,0 60.2,0 0,-30 0,-30 -25.7,-0.2 -25.7,-0.3 -18.8,-31.5 c -10.3,-17.3 -24.3,-41 -31.2,-52.6 -6.9,-11.6 -12.6,-21.5 -12.6,-22 0,-0.5 3.9,-2.7 8.6,-4.8 10.4,-4.8 23.7,-13.5 32.1,-21.1 7.6,-6.8 16.5,-20 20.4,-30 8.9,-22.8 7.4,-52.1 -3.7,-75 -15.3,-31.6 -47.8,-51.8 -90.6,-56.5 -6.3,-0.6 -55.1,-1 -136.8,-1 l -127,0 0,30 z m 228,32.8 c 12.4,4.1 22,12.5 26.2,23.1 3.1,7.9 3.2,22.5 0,29.4 -5,11 -14.3,18.6 -28.6,23.4 -8,2.7 -8.7,2.7 -38.3,3.1 l -30.3,0.4 0,-41.2 0,-41.2 32.3,0.4 c 29.6,0.4 32.7,0.6 38.7,2.6 z" />
        <path
           style="fill:#1d4480;fill-opacity:1;stroke:none"
           inkscape:connector-curvature="0"
           id="path82"
           d="m 2252,932 0,30 24.8,0 24.7,0 4.1,5.3 c 2.2,2.8 26.6,34.1 54.2,69.5 l 50.2,64.4 0,47.9 0,47.9 -27.5,0 -27.5,0 0,30 0,30 105.5,0 105.5,0 0,-30 0,-30 -28,0 -28,0 0,-47.8 0,-47.7 13.8,-18.6 c 7.5,-10.3 19,-25.8 25.5,-34.5 6.4,-8.8 17.4,-23.6 24.2,-32.9 6.9,-9.4 18.5,-25.1 25.9,-35 l 13.3,-18 24.6,-0.3 24.7,-0.2 0,-30 0,-30 -84.5,0 -84.5,0 0,30 0,30 17.1,0 c 9.4,0 16.9,0.4 16.7,0.8 -0.9,2.3 -56.2,85.2 -56.8,85.2 -0.7,0 -59,-84.4 -59,-85.4 0,-0.3 7.9,-0.6 17.5,-0.6 l 17.5,0 0,-30 0,-30 -97,0 -97,0 0,30 z" />
        <path
           style="fill:#1d4480;fill-opacity:1;stroke:none"
           inkscape:connector-curvature="0"
           id="path84"
           d="m 2634.1,1168.6 c -14.6,3.9 -27.1,13.7 -33.2,26.1 -3.2,6.5 -3.4,7.3 -3.4,18.3 0,11.4 0.1,11.7 3.8,19.2 6.3,12.9 17.9,21.9 33.3,25.8 18.6,4.8 38.5,-0.2 51.4,-13 30.7,-30.3 7.2,-78.3 -38.1,-77.9 -4.6,0 -10.8,0.7 -13.8,1.5 z m 25.2,8.9 c 12.2,3.2 22,10.8 26.8,20.9 3.8,7.9 4.5,14.7 2.5,22.7 -4,15.4 -16.2,25.9 -33.8,28.9 -17.5,3 -35.5,-5.7 -43.9,-21.2 -3.1,-5.8 -3.4,-7 -3.4,-15.3 0,-7.7 0.4,-9.8 2.6,-14.6 7.9,-16.9 29.9,-26.4 49.2,-21.4 z" />
        <path
           style="fill:#1d4480;fill-opacity:1;stroke:none"
           inkscape:connector-curvature="0"
           id="path86"
           d="m 2625,1213.5 0,24.5 5.5,0 5.5,0 0,-10 0,-10 4.2,0 c 3.6,0 4.7,0.6 8.2,4.3 2.3,2.3 5.5,6.8 7.1,10 l 3,5.7 6.8,0 c 3.7,0 6.7,-0.3 6.7,-0.6 0,-1.4 -9.6,-15.2 -12.6,-18 l -3.3,-3.1 3.9,-1.2 c 6,-1.8 9,-6.1 9,-12.8 0,-5 -0.3,-5.9 -3.4,-8.8 -4.4,-4.1 -6.6,-4.5 -25.2,-4.5 l -15.4,0 0,24.5 z m 29,-15.5 c 5.1,2.7 4.4,9 -1.1,10.9 -1.7,0.6 -6.3,1.1 -10,1.1 l -6.9,0 0,-6.5 0,-6.5 8.1,0 c 4.4,0 8.9,0.5 9.9,1 z" />
      </g>
      <g
         id="g5125">
        <path
           d="m 1556.0479,278.69244 -66.596,0 -28.5002,-74.75941 -18.9047,0 0,74.75941 -60.0081,0 0,-195.491549 102.1139,0 q 33.7993,0 52.4176,15.897115 18.7614,15.753894 18.7614,41.676224 0,16.89963 -6.8744,29.9324 -6.8744,12.88955 -27.7842,22.77154 l 35.3747,85.21427 z M 1442.047,162.1136 l 25.6359,0 q 11.3141,0 18.1886,-4.72617 6.8744,-4.72617 6.8744,-13.89208 0,-18.76146 -23.058,-18.76146 l -27.6409,0 0,37.37971 z"
           style="font-style:normal;font-variant:normal;font-weight:normal;font-stretch:normal;font-size:293.30892944px;font-family:'Franklin Gothic Heavy';-inkscape-font-specification:'Franklin Gothic Heavy, '"
           id="path5109" />
        <path
           d="m 1649.9984,281.7 q -36.2339,0 -57.5733,-22.48511 -21.3394,-22.62832 -21.3394,-52.99038 0,-32.65353 22.1987,-54.42256 22.3419,-21.76902 58.003,-21.76902 35.9475,0 57.7165,21.48259 21.9123,21.48259 21.9123,53.84969 0,32.65353 -22.1987,54.56577 Q 1686.662,281.7 1649.9984,281.7 Z m 0.8593,-34.65857 q 13.3192,0 16.1836,-13.74886 3.0075,-13.89207 3.0075,-28.92988 0,-20.48007 -4.1533,-29.50276 -4.1533,-9.02269 -14.8946,-9.02269 -9.882,0 -14.4649,9.30913 -4.583,9.30912 -4.583,30.64849 0,25.06302 4.7262,33.2264 4.7262,8.02017 14.1785,8.02017 z"
           style="font-style:normal;font-variant:normal;font-weight:normal;font-stretch:normal;font-size:293.30892944px;font-family:'Franklin Gothic Heavy';-inkscape-font-specification:'Franklin Gothic Heavy, '"
           id="path5111" />
        <path
           d="m 1849.2136,226.41814 53.2768,3.58043 q -4.7261,21.48259 -24.2037,36.66362 -19.3343,15.03781 -52.4175,15.03781 -36.8068,0 -58.7191,-21.19615 -21.9122,-21.33937 -21.9122,-52.84717 0,-32.65353 21.6258,-55.13864 21.6258,-22.48511 57.7165,-22.48511 34.9451,0 56.4276,21.19616 21.6258,21.19615 21.6258,57.71655 0,3.00756 -0.1432,8.3066 l -97.5309,0 q 0.2864,13.74885 4.8694,20.48006 4.5829,6.588 17.4725,6.588 18.6182,0 21.9122,-17.90216 z m -3.7236,-37.80935 q -0.1433,-14.75138 -6.0152,-19.76398 -5.7287,-5.15582 -14.3217,-5.15582 -20.3368,0 -20.3368,24.9198 l 40.6737,0 z"
           style="font-style:normal;font-variant:normal;font-weight:normal;font-stretch:normal;font-size:293.30892944px;font-family:'Franklin Gothic Heavy';-inkscape-font-specification:'Franklin Gothic Heavy, '"
           id="path5113" />
        <path
           d="m 2145.5301,278.69244 -55.4251,0 0,-91.08617 q 0,-9.16591 -2.7211,-12.74634 -2.5779,-3.72365 -9.3091,-3.72365 -16.0404,0 -16.0404,23.34441 l 0,84.21175 -54.8522,0 0,-91.08617 q 0,-17.47251 -13.4624,-17.47251 -13.8921,0 -13.8921,17.47251 l 0,91.08617 -54.9954,0 0,-145.65195 51.2718,0 0,19.62077 q 13.7488,-22.62833 39.9576,-22.62833 28.2138,0 40.9601,22.62833 14.1785,-22.62833 43.5381,-22.62833 14.0353,0 24.6333,5.87191 10.7413,5.87191 15.4675,15.18103 4.8694,9.1659 4.8694,28.50023 l 0,99.10634 z"
           style="font-style:normal;font-variant:normal;font-weight:normal;font-stretch:normal;font-size:293.30892944px;font-family:'Franklin Gothic Heavy';-inkscape-font-specification:'Franklin Gothic Heavy, '"
           id="path5115" />
        <path
           d="m 2271.9909,226.41814 53.2768,3.58043 q -4.7261,21.48259 -24.2037,36.66362 -19.3343,15.03781 -52.4175,15.03781 -36.8068,0 -58.7191,-21.19615 -21.9122,-21.33937 -21.9122,-52.84717 0,-32.65353 21.6258,-55.13864 21.6258,-22.48511 57.7166,-22.48511 34.945,0 56.4276,21.19616 21.6258,21.19615 21.6258,57.71655 0,3.00756 -0.1433,8.3066 l -97.5309,0 q 0.2864,13.74885 4.8694,20.48006 4.5829,6.588 17.4725,6.588 18.6182,0 21.9122,-17.90216 z m -3.7236,-37.80935 q -0.1432,-14.75138 -6.0151,-19.76398 -5.7287,-5.15582 -14.3218,-5.15582 -20.3368,0 -20.3368,24.9198 l 40.6737,0 z"
           style="font-style:normal;font-variant:normal;font-weight:normal;font-stretch:normal;font-size:293.30892944px;font-family:'Franklin Gothic Heavy';-inkscape-font-specification:'Franklin Gothic Heavy, '"
           id="path5117" />
        <path
           d="m 2402.3186,278.69244 -54.709,0 0,-145.65195 47.5482,0 0,30.07563 q 8.1634,-32.79675 37.9525,-32.79675 3.0076,0 8.3066,0.57287 l 0,50.84212 q -6.0151,-1.43217 -10.7412,-1.43217 -28.3571,0 -28.3571,31.65101 l 0,66.73924 z"
           style="font-style:normal;font-variant:normal;font-weight:normal;font-stretch:normal;font-size:293.30892944px;font-family:'Franklin Gothic Heavy';-inkscape-font-specification:'Franklin Gothic Heavy, '"
           id="path5119" />
        <path
           d="m 2491.2565,165.69403 -27.9274,0 -7.1608,-82.493139 42.2491,0 -7.1609,82.493139 z"
           style="font-style:normal;font-variant:normal;font-weight:normal;font-stretch:normal;font-size:293.30892944px;font-family:'Franklin Gothic Heavy';-inkscape-font-specification:'Franklin Gothic Heavy, '"
           id="path5121" />
        <path
           d="m 2512.3095,237.44587 45.1134,-6.15834 q 3.8669,15.7539 30.6485,15.7539 22.1987,0 22.1987,-8.59304 0,-3.72365 -4.2965,-5.72869 -4.2965,-2.14826 -20.3369,-4.29652 -44.3973,-6.15834 -55.425,-19.19111 -11.0278,-13.17599 -11.0278,-29.21632 0,-22.34189 18.6183,-36.09074 18.6182,-13.89208 48.8371,-13.89208 52.9903,0 67.5985,38.23901 l -43.2516,8.16338 q -6.0151,-12.88955 -25.3495,-12.88955 -9.1659,0 -13.7488,2.57791 -4.4397,2.43469 -4.4397,4.86939 0,7.16086 13.7488,8.73625 35.8043,4.01008 48.5507,8.16338 12.7463,4.1533 21.769,15.18103 9.0227,11.02773 9.0227,26.63841 0,23.91728 -20.0504,37.95257 -19.9072,14.03529 -54.9955,14.03529 -59.1487,0 -73.184,-44.25413 z"
           style="font-style:normal;font-variant:normal;font-weight:normal;font-stretch:normal;font-size:293.30892944px;font-family:'Franklin Gothic Heavy';-inkscape-font-specification:'Franklin Gothic Heavy, '"
           id="path5123" />
      </g>
    </g>
  </g>
</svg>
