<?xml version="1.0" encoding="UTF-8" standalone="no"?>
<svg
   xmlns:dc="http://purl.org/dc/elements/1.1/"
   xmlns:cc="http://creativecommons.org/ns#"
   xmlns:rdf="http://www.w3.org/1999/02/22-rdf-syntax-ns#"
   xmlns:svg="http://www.w3.org/2000/svg"
   xmlns="http://www.w3.org/2000/svg"
   xmlns:sodipodi="http://sodipodi.sourceforge.net/DTD/sodipodi-0.dtd"
   xmlns:inkscape="http://www.inkscape.org/namespaces/inkscape"
   viewBox="0 0 441.38614 74.361648"
   height="74.361649"
   width="441.38614"
   xml:space="preserve"
   version="1.1"
   id="svg2"
   inkscape:version="0.91 r13725"
   sodipodi:docname="ori-brand-icon-AVONTires.svg"><sodipodi:namedview
     pagecolor="#ffffff"
     bordercolor="#666666"
     borderopacity="1"
     objecttolerance="10"
     gridtolerance="10"
     guidetolerance="10"
     inkscape:pageopacity="0"
     inkscape:pageshadow="2"
     inkscape:window-width="1920"
     inkscape:window-height="1017"
     id="namedview5258"
     showgrid="false"
     fit-margin-top="0"
     fit-margin-left="0"
     fit-margin-right="0"
     fit-margin-bottom="0"
     inkscape:zoom="0.63007131"
     inkscape:cx="398.3374"
     inkscape:cy="14.553097"
     inkscape:window-x="-8"
     inkscape:window-y="-8"
     inkscape:window-maximized="1"
     inkscape:current-layer="svg2" /><metadata
     id="metadata8"><rdf:RDF><cc:Work
         rdf:about=""><dc:format>image/svg+xml</dc:format><dc:type
           rdf:resource="http://purl.org/dc/dcmitype/StillImage" /><dc:title></dc:title></cc:Work></rdf:RDF></metadata><defs
     id="defs6" /><path
     id="path156"
     style="fill:#ffffff;fill-opacity:1;fill-rule:nonzero;stroke:none"
     d="m 131.33488,40.184145 -5.32625,7.0925 -30.718747,0 40.192497,-45.3437497 40.1175,-0.025 8.17375,45.2612497 -29.43,0.1075 -1.13875,-7.0925 -21.87,0 m 17.845,-25.495 -11.98875,16.33875 14.4275,0 -2.43875,-16.33875"
     inkscape:connector-curvature="0" /><path
     id="path158"
     style="fill:#040606;fill-opacity:1;fill-rule:nonzero;stroke:none"
     d="m 131.33488,40.184145 -5.32625,7.0925 -30.718747,0 40.192497,-45.3437497 40.1175,-0.025 8.17375,45.2612497 -29.43,0.1075 -1.13875,-7.0925 -21.87,0 z m 17.845,-25.495 -11.98875,16.33875 14.4275,0 -2.43875,-16.33875"
     inkscape:connector-curvature="0" /><path
     id="path160"
     style="fill:#ffffff;fill-opacity:1;fill-rule:nonzero;stroke:none"
     d="m 336.86988,11.689145 c -3.66,-10.74999969 -31.33625,-14.7812497 -50.7725,-9.1487497 -16.58,4.8025 -35.33375,21.1524997 -31.79,33.3887497 3.6975,12.76125 30.74,16.43625 50.08625,10.5225 19.345,-5.9225 36.75625,-22.1875 32.47625,-34.7625 m -38.0825,17.65375 c -4.49625,5.76625 -10.8175,8.35875 -14.12,5.78625 -3.29875,-2.57375 -2.33,-9.33375 2.16625,-15.10125 4.49625,-5.7725 10.81875,-8.36375 14.11875,-5.79 3.3,2.5725 2.33125,9.335 -2.165,15.105"
     inkscape:connector-curvature="0" /><path
     id="path162"
     style="fill:#040606;fill-opacity:1;fill-rule:nonzero;stroke:none"
     d="m 336.86988,11.689145 c -3.66,-10.74999969 -31.33625,-14.7812497 -50.7725,-9.1487497 -16.58,4.8025 -35.33375,21.1524997 -31.79,33.3887497 3.6975,12.76125 30.74,16.43625 50.08625,10.5225 19.345,-5.9225 36.75625,-22.1875 32.47625,-34.7625 z m -38.0825,17.65375 c -4.49625,5.76625 -10.8175,8.35875 -14.12,5.78625 -3.29875,-2.57375 -2.33,-9.33375 2.16625,-15.10125 4.49625,-5.7725 10.81875,-8.36375 14.11875,-5.79 3.3,2.5725 2.33125,9.335 -2.165,15.105"
     inkscape:connector-curvature="0" /><path
     id="path164"
     style="fill:#ffffff;fill-opacity:1;fill-rule:nonzero;stroke:none"
     d="m 235.12738,1.9028953 31.95125,0.0913 -44.0375,45.2699997 -30.09625,0.0125 -7.8175,-45.2099997 29.22,0 1.90625,24.8999997 18.87375,-25.0637497"
     inkscape:connector-curvature="0" /><path
     id="path166"
     style="fill:#040606;fill-opacity:1;fill-rule:nonzero;stroke:none"
     d="m 235.12738,1.9028953 31.95125,0.0913 -44.0375,45.2699997 -30.09625,0.0125 -7.8175,-45.2099997 29.22,0 1.90625,24.8999997 18.87375,-25.0637497"
     inkscape:connector-curvature="0" /><path
     id="path168"
     style="fill:#ffffff;fill-opacity:1;fill-rule:nonzero;stroke:none"
     d="m 441.38613,1.9941453 -30.995,0 -12.8275,16.3299997 -7.35375,-16.3299997 -29.08,0 -33.04375,45.2799997 32.755,0 12.25875,-17.3725 6.65375,17.3725 28.9475,0 32.685,-45.2799997"
     inkscape:connector-curvature="0" /><path
     id="path170"
     style="fill:#040606;fill-opacity:1;fill-rule:nonzero;stroke:none"
     d="m 441.38613,1.9941453 -30.995,0 -12.8275,16.3299997 -7.35375,-16.3299997 -29.08,0 -33.04375,45.2799997 32.755,0 12.25875,-17.3725 6.65375,17.3725 28.9475,0 32.685,-45.2799997"
     inkscape:connector-curvature="0" /><path
     id="path172"
     style="fill:#ed2024;fill-opacity:1;fill-rule:nonzero;stroke:none"
     d="m 11.20463,35.560395 79.911503,0.0663 8.255,-9.3 -80.022003,0.0575 -8.1445,9.17625 M 0,48.185445 l 80.119883,-0.16875 8.11,-9.13625 L 8.20175,38.944245 0,48.185495 Z m 22.28613,-25.10875 79.98,-0.009 8.25125,-9.30125 -79.98,0.0113 -8.25125,9.29875 z m 19.427503,-21.8912497 -8.3075,9.3599997 79.969997,0 8.30875,-9.3599997 -79.971247,0"
     inkscape:connector-curvature="0" /><path
     id="path174"
     style="fill:#040606;fill-opacity:1;fill-rule:nonzero;stroke:none"
     d="m 274.29863,74.197895 -7.66125,0 10.59875,-15.86125 -7.35625,0 3.20125,-4.7925 22.755,0 -3.2025,4.7925 -7.73875,0 -10.59625,15.86125"
     inkscape:connector-curvature="0" /><path
     id="path176"
     style="fill:#040606;fill-opacity:1;fill-rule:nonzero;stroke:none"
     d="m 306.25863,66.954145 -4.84,7.24375 -7.66,0 4.83875,-7.24375 -1.22875,-13.41 8.77125,0 -0.1825,7.95875 0.26625,0 10.60375,-7.95875 8.8875,0 -19.45625,13.41"
     inkscape:connector-curvature="0" /><path
     id="path178"
     style="fill:#040606;fill-opacity:1;fill-rule:nonzero;stroke:none"
     d="m 327.58738,53.544145 14.78625,0 c 6.5725,0.08 9.1475,1.09875 5.70625,6.2525 -2.29875,3.44 -3.6425,5.45125 -9.69,6.36 l -0.14625,0.22 c 3.08625,0.0825 4.2875,1.3225 2.725,3.66375 l -2.78,4.1575 -7.66,0 1.93125,-2.8925 c 1.1075,-1.54125 0.88875,-2.5875 -1.41125,-2.5875 l -5.9375,0 -3.66,5.48 -7.6625,0 13.79875,-20.65375 m 6.66125,10.38125 c 3.29625,0 3.77,-0.88125 5.33375,-3.22375 1.2325,-1.8425 0.93,-2.365 -1.5975,-2.365 l -5.9375,0 -3.7375,5.58875 5.93875,0"
     inkscape:connector-curvature="0" /><path
     id="path180"
     style="fill:#040606;fill-opacity:1;fill-rule:nonzero;stroke:none"
     d="m 359.31988,61.832895 13.4875,0 -2.55875,3.825 -13.4875,0 -2.685,4.02375 14.55875,0 -3.01625,4.51625 -22.21875,0 13.79625,-20.65375 21.9525,0 -3.01625,4.51625 -14.29,0 -2.5225,3.7725"
     inkscape:connector-curvature="0" /><path
     id="path182"
     style="fill:#040606;fill-opacity:1;fill-rule:nonzero;stroke:none"
     d="m 391.66238,61.641645 c 8.20875,0.44 9.8025,1.20875 6.63625,5.945 -2.28125,3.41625 -4.33375,6.775 -16.975,6.775 -7.3175,0 -12.11,-0.11 -7.58125,-6.8825 l 7.35375,0 c -1.435,2.14625 -0.50875,2.36625 3.245,2.36625 3.6,0 4.89875,-0.16375 6.0575,-1.9 1.195,-1.78875 0.75625,-1.7625 -2.735,-1.92625 l -1.63125,-0.085 c -6.845,-0.35625 -11.0025,-0.33 -7.04625,-6.25 3.9575,-5.92 8.85,-6.30625 16.355,-6.30625 6.28375,0 11.5925,0.0838 7.78375,5.78375 l -0.5725,0.8525 -7.35375,0 c 1.4175,-2.12 0.1925,-2.12 -2.87625,-2.12 -4.13375,0 -4.88375,0.60625 -5.65625,1.76375 -1.10375,1.65 -0.03,1.70875 1.9275,1.81625 l 3.06875,0.1675"
     inkscape:connector-curvature="0" /></svg>