<?xml version="1.0" encoding="UTF-8" standalone="no"?>
<!-- Generator: Adobe Illustrator 15.0.2, SVG Export Plug-In  -->

<svg
   xmlns:dc="http://purl.org/dc/elements/1.1/"
   xmlns:cc="http://creativecommons.org/ns#"
   xmlns:rdf="http://www.w3.org/1999/02/22-rdf-syntax-ns#"
   xmlns:svg="http://www.w3.org/2000/svg"
   xmlns="http://www.w3.org/2000/svg"
   xmlns:sodipodi="http://sodipodi.sourceforge.net/DTD/sodipodi-0.dtd"
   xmlns:inkscape="http://www.inkscape.org/namespaces/inkscape"
   version="1.1"
   x="0px"
   y="0px"
   width="319.93097"
   height="65.599998"
   viewBox="-5 -5.4 319.93097 65.599998"
   overflow="visible"
   xml:space="preserve"
   id="svg2"
   inkscape:version="0.91 r13725"
   sodipodi:docname="brand-icon-Dunlop-g.svg"
   style="overflow:visible"><metadata
     id="metadata26"><rdf:RDF><cc:Work
         rdf:about=""><dc:format>image/svg+xml</dc:format><dc:type
           rdf:resource="http://purl.org/dc/dcmitype/StillImage" /><dc:title /></cc:Work></rdf:RDF></metadata><sodipodi:namedview
     pagecolor="#ffffff"
     bordercolor="#666666"
     borderopacity="1"
     objecttolerance="10"
     gridtolerance="10"
     guidetolerance="10"
     inkscape:pageopacity="0"
     inkscape:pageshadow="2"
     inkscape:window-width="1575"
     inkscape:window-height="809"
     id="namedview24"
     showgrid="false"
     fit-margin-top="0"
     fit-margin-left="0"
     fit-margin-right="0"
     fit-margin-bottom="0"
     inkscape:zoom="2.4941585"
     inkscape:cx="109.07371"
     inkscape:cy="14.158364"
     inkscape:window-x="0"
     inkscape:window-y="0"
     inkscape:window-maximized="0"
     inkscape:current-layer="svg2" /><defs
     id="defs4" /><g
     id="g4152"
     style="fill:#959da0;fill-opacity:1"><path
       inkscape:connector-curvature="0"
       id="path6"
       d="m 288.7,30.1 -2.2,5.6 4.2,0 -2.2,5 -23.1,0 2,-5 4.8,0 7.1,-16.4 -4.8,0 1.6,-5 31,0 c 5.6,0 7.2,0.7 7.8,2.8 0.2,2.3 -0.6,3.7 -1.5,5.8 -1.1,2.7 -4,7.2 -9.8,7.2 l -14.9,0 z m 7.9,-5.1 c 2.1,0 2.4,-1.1 2.7,-1.5 0.5,-1 0.7,-1.4 1,-2.2 0.3,-0.7 0.3,-2.1 -1.7,-2.1 -1.6,-0.1 -5.1,0 -5.1,0 l -2.4,5.8 c 0.1,0 4.5,0 5.5,0"
       style="fill:#959da0;fill-opacity:1" /><path
       inkscape:connector-curvature="0"
       id="path8"
       d="m 53.2,40.6 2.2,-5 4.6,0 7.3,-16.4 -4.3,0 2.1,-5 32.8,0 c 1.7,0.4 3.6,1.2 4.5,2.9 2.4,4.3 -0.8,8.6 -2.2,12.5 -2.2,4.5 -5.7,10.1 -11.3,10.7 l -2.2,0.3 -33.5,0 z m 26.7,-5 c 1.2,-0.1 1.8,-0.3 2.9,-1.3 2.1,-2.4 5.6,-10.7 5.7,-13.3 0.1,-0.9 -0.7,-1.8 -2,-1.8 -2,0 -5.4,0 -5.4,0 l -7.5,16.4 c 0,0 4,0 6.3,0"
       style="fill:#959da0;fill-opacity:1" /><path
       inkscape:connector-curvature="0"
       id="path10"
       d="m 242.6,40.8 c -3.1,0 -5.3,-0.1 -8.4,-0.3 -2.7,-0.1 -5.4,-1.1 -6.6,-3.6 -1.3,-3.8 0.5,-6.3 2.2,-9.7 3,-6.1 4.4,-10.2 9.1,-11.9 4.1,-1.7 9,-1.2 13.6,-1.5 4.5,0 8.7,0.2 13.1,0.7 2.2,0.5 4.8,1.3 5.5,3.7 0.7,3.2 -1.4,6.4 -1.9,7.7 -2.6,5.6 -2.7,5.9 -5,9.4 -1.9,3 -6.2,4.8 -9.3,5 -3.6,0.4 -8.1,0.5 -11.7,0.5 l -0.6,0 0,0 0,0 z m 10.3,-9.2 c 1.4,-3 2.7,-5.5 3.9,-8.6 0.5,-1.2 1.4,-4.6 -4.4,-4.7 -5.7,-0.1 -7,2.7 -7.5,4.1 -1,2.2 -3.6,7 -4,8.8 -1.3,4.3 2.2,4.5 3.8,4.4 0.1,0 6.1,0.6 8.2,-4"
       style="fill:#959da0;fill-opacity:1" /><path
       inkscape:connector-curvature="0"
       id="path12"
       d="m 142.8,19.2 c 0,0 -4.3,11.2 -7.2,16.1 -2.5,4.1 -7.3,5.3 -11.9,5.5 -4.9,0.3 -10,0.5 -14.6,-0.3 -2.1,-0.5 -4.1,-2.4 -4.4,-4.6 -0.3,-1.5 0.1,-2.9 0.8,-4.2 1.9,-4 5.3,-12.5 5.3,-12.5 l -4.6,0 2.2,-5 23.2,0 -2,5 -4.5,0 -5.4,12.6 c -0.4,1 -0.3,2 0.4,2.8 1.7,1.4 4.5,1.3 6.6,0.8 1.8,-0.5 3.4,-2.1 4.2,-3.8 l 5.3,-12.4 -4.2,0 2.1,-5 15.3,0 -2.2,5 -4.4,0 z"
       style="fill:#959da0;fill-opacity:1" /><polygon
       transform="translate(-5,-5.4000001)"
       id="polygon14"
       points="164.4,29.9 159.5,41 163.8,41 161.7,46 145.6,46 147.8,41 152.8,41 159.8,24.6 155.2,24.6 157.1,19.6 173.6,19.6 181.6,35.4 186.1,24.6 182,24.6 184,19.7 199.6,19.7 197.6,24.6 193.1,24.6 183.9,46 172.8,46 "
       style="fill:#959da0;fill-opacity:1" /><polygon
       transform="translate(-5,-5.4000001)"
       id="polygon16"
       points="227,33.3 231.6,33.3 226.1,46 191.1,46 193.4,41 198.1,41 205.1,24.6 200.7,24.6 202.7,19.6 226.3,19.6 224.1,24.6 219.6,24.6 212.8,41 220.1,41 "
       style="fill:#959da0;fill-opacity:1" /><path
       inkscape:connector-curvature="0"
       id="path20"
       d="m 51.6,26.8 -55.5,-32.2000001 16.9,15 c -0.2,0 -0.4,0 -0.7,0 C 2.8,9.5999999 -5,17.4 -5,27 c 0,9.6 7.8,17.4 17.4,17.4 0.6,0 1.2,0 1.8,-0.1 L -3.4,60.2 51.6,26.8 Z M -0.6,27 c 0,-9 7.2,-16.2 16.2,-16.2 8.9,0 16.2,7.3 16.2,16.2 0,9 -7.2,16.2 -16.2,16.2 C 6.7,43.2 -0.6,36 -0.6,27"
       style="fill:#959da0;fill-opacity:1" /><path
       style="fill:#959da0;fill-opacity:1"
       inkscape:connector-curvature="0"
       id="path22"
       d="m 21.2,20.4 -15,0 -1.2,3.9 2.8,0 -1.8,5.9 -1.8,0 -1.4,3.9 16.9,0 c 4,0 8.8,-1.2 9.9,-6.3 0.7,-3.6 -0.5,-7.4 -8.4,-7.4 M 21,28 c -0.5,1.1 -2.3,2.2 -4,2.2 l -2.8,0 1.9,-5.9 3.5,0 c 1.5,0.1 2.1,1.8 1.4,3.7" /></g></svg>