<?xml version="1.0" encoding="UTF-8" standalone="no"?>
<svg
   xmlns:dc="http://purl.org/dc/elements/1.1/"
   xmlns:cc="http://creativecommons.org/ns#"
   xmlns:rdf="http://www.w3.org/1999/02/22-rdf-syntax-ns#"
   xmlns:svg="http://www.w3.org/2000/svg"
   xmlns="http://www.w3.org/2000/svg"
   xmlns:sodipodi="http://sodipodi.sourceforge.net/DTD/sodipodi-0.dtd"
   xmlns:inkscape="http://www.inkscape.org/namespaces/inkscape"
   height="32.203396"
   id="Layer_1"
   version="1.1"
   viewBox="0 0 32.271198 32.203396"
   width="32.271198"
   xml:space="preserve"
   inkscape:version="0.91 r13725"
   sodipodi:docname="icon-home-my-01-02.svg"><metadata
     id="metadata9"><rdf:RDF><cc:Work
         rdf:about=""><dc:format>image/svg+xml</dc:format><dc:type
           rdf:resource="http://purl.org/dc/dcmitype/StillImage" /><dc:title></dc:title></cc:Work></rdf:RDF></metadata><defs
     id="defs7" /><sodipodi:namedview
     pagecolor="#ffffff"
     bordercolor="#666666"
     borderopacity="1"
     objecttolerance="10"
     gridtolerance="10"
     guidetolerance="10"
     inkscape:pageopacity="0"
     inkscape:pageshadow="2"
     inkscape:window-width="1007"
     inkscape:window-height="655"
     id="namedview5"
     showgrid="false"
     showguides="true"
     inkscape:guide-bbox="true"
     inkscape:zoom="7.375"
     inkscape:cx="3.6939522"
     inkscape:cy="2.3906869"
     inkscape:window-x="252"
     inkscape:window-y="130"
     inkscape:window-maximized="0"
     inkscape:current-layer="Layer_1"
     fit-margin-top="0"
     fit-margin-left="0"
     fit-margin-right="0"
     fit-margin-bottom="0"><sodipodi:guide
       position="12.100602,14.813288"
       orientation="1,0"
       id="guide4145" /><sodipodi:guide
       position="14.83315,11.984861"
       orientation="0,1"
       id="guide4147" /><sodipodi:guide
       position="19.962671,10.30698"
       orientation="1,0"
       id="guide4149" /><sodipodi:guide
       position="16.175455,3.9789739"
       orientation="0,1"
       id="guide4151" /></sodipodi:namedview><g
     id="g4163"
     transform="translate(0.06780211,0.20339504)"><path
       style="fill:#9ba2a7;fill-opacity:1"
       inkscape:connector-curvature="0"
       id="path3"
       d="M 1.062,16 14,1.188 C 14.547,0.594 15.062,0 16,0 c 0.938,0 1.453,0.594 2,1.188 L 24,8.058 24,4 c 0,-1.104 0.896,-2 2,-2 1.104,0 2,0.896 2,2 l 0,8.637 2.937,3.363 c 0.657,0.734 1.063,1.188 1.063,2 0,1.016 -0.797,2 -2,2 l -2,0 0,10 c 0,1.1 -0.9,2 -2,2 L 6,32 C 4.9,32 4,31.1 4,30 L 4,20 2,20 C 0.797,20 0,19.016 0,18 0,17.188 0.406,16.734 1.062,16 Z M 8,16 l 0,12 4,0 0,-8 8,0 0,8 4,0 0,-12 1.627,0 L 16,4.979 6.373,16 8,16 Z" /><rect
       y="20.015139"
       x="12.0328"
       height="8.005887"
       width="7.8620691"
       id="rect4159"
       style="fill:#666666;fill-opacity:1;stroke:#ffffff;stroke-width:0;stroke-miterlimit:4;stroke-dasharray:none;stroke-opacity:1" /><path
       inkscape:connector-curvature="0"
       id="path4161"
       d="M 2.3728814,20.015139 16,5.0169491 28.271186,20.015139 l 2.101695,0 0.881356,0 L 32.20339,18.169492 31.118644,16.135593 27.79661,12.542373 16.949153,-0.06779663 15.389831,-0.20338985 13.762712,1.559322 0.27118644,17.084746 l -0.33898305,1.084746 0.74576271,1.084745 0.7457627,0.760902 0.6101695,0 0.067797,0 z"
       style="fill:#666666;fill-opacity:1;fill-rule:evenodd;stroke:#000000;stroke-width:0;stroke-linecap:butt;stroke-linejoin:miter;stroke-miterlimit:4;stroke-dasharray:none;stroke-opacity:1" /></g></svg>