<?xml version="1.0" encoding="UTF-8" standalone="no"?>
<!-- Created with Inkscape (http://www.inkscape.org/) -->

<svg
   xmlns:dc="http://purl.org/dc/elements/1.1/"
   xmlns:cc="http://creativecommons.org/ns#"
   xmlns:rdf="http://www.w3.org/1999/02/22-rdf-syntax-ns#"
   xmlns:svg="http://www.w3.org/2000/svg"
   xmlns="http://www.w3.org/2000/svg"
   xmlns:sodipodi="http://sodipodi.sourceforge.net/DTD/sodipodi-0.dtd"
   xmlns:inkscape="http://www.inkscape.org/namespaces/inkscape"
   width="10.130719mm"
   height="12.999331mm"
   viewBox="0 0 35.896249 46.060623"
   id="svg6118"
   version="1.1"
   inkscape:version="0.91 r13725"
   sodipodi:docname="icon-doc-my-01-02.svg">
  <defs
     id="defs6120">
    <clipPath
       id="clipPath262"
       clipPathUnits="userSpaceOnUse">
      <path
         inkscape:connector-curvature="0"
         id="path264"
         d="m 1709.88,1038.39 117.16,0 c 7.84,0 14.17,6.34 14.17,14.17 0,7.83 -6.33,14.17 -14.17,14.17 l -117.16,0 c -7.84,0 -14.18,-6.34 -14.18,-14.17 0,-7.83 6.34,-14.17 14.18,-14.17 z m 0,-52.792 117.16,0 c 7.84,0 14.17,6.336 14.17,14.168 0,7.834 -6.33,14.174 -14.17,14.174 l -117.16,0 c -7.84,0 -14.18,-6.34 -14.18,-14.174 0,-7.832 6.34,-14.168 14.18,-14.168 z m 0,-52.793 117.16,0 c 7.84,0 14.17,6.336 14.17,14.168 0,7.832 -6.33,14.172 -14.17,14.172 l -117.16,0 c -7.84,0 -14.18,-6.34 -14.18,-14.172 0,-7.832 6.34,-14.168 14.18,-14.168 z m 0,-52.785 83.69,0 c 7.83,0 14.16,6.335 14.16,14.171 0,7.832 -6.33,14.168 -14.16,14.168 l -83.69,0 c -7.84,0 -14.18,-6.336 -14.18,-14.168 0,-7.836 6.34,-14.171 14.18,-14.171 z m 189.07,266.07 -258.83,0 c -7.83,0 -14.17,-6.33 -14.17,-14.16 l 0,-340.153 c 0,-7.832 6.34,-14.172 14.17,-14.172 l 183.34,0 c 0.03,0 0.07,0.012 0.09,0.012 0.09,0 0.17,0.02 0.25,0.031 1.8,0.04 3.52,0.399 5.09,1.043 0.02,0.008 0.05,0.008 0.07,0.02 1.74,0.73 3.3,1.816 4.59,3.137 0.02,0.015 0.04,0.015 0.04,0.027 l 75.37,77.109 c 0,0.008 0.02,0.008 0.02,0.02 l 0.1,0.105 c 0.03,0.032 0.03,0.071 0.06,0.09 1.25,1.297 2.26,2.832 2.94,4.531 0.05,0.125 0.07,0.247 0.11,0.372 0.58,1.535 0.93,3.171 0.93,4.914 l 0,262.914 c 0,7.83 -6.34,14.16 -14.17,14.16 z m -61.32,-319.535 0,28.289 27.66,0 -27.66,-28.289 z m 47.15,81.629 c 0,0 0,-13.457 0,-25 -18.71,0 -61.32,0 -61.32,0 -7.83,0 -14.17,-6.336 -14.17,-14.168 0,0 0,-44.172 0,-63.071 l -155,0 0,311.805 230.49,0 c 0,-24.87 0,-209.566 0,-209.566" />
    </clipPath>
  </defs>
  <sodipodi:namedview
     id="base"
     pagecolor="#ffffff"
     bordercolor="#666666"
     borderopacity="1.0"
     inkscape:pageopacity="0.0"
     inkscape:pageshadow="2"
     inkscape:zoom="3.959798"
     inkscape:cx="0.29809781"
     inkscape:cy="-38.866982"
     inkscape:document-units="px"
     inkscape:current-layer="layer1"
     showgrid="false"
     inkscape:window-width="1920"
     inkscape:window-height="1017"
     inkscape:window-x="-8"
     inkscape:window-y="-8"
     inkscape:window-maximized="1"
     fit-margin-top="0"
     fit-margin-left="0"
     fit-margin-right="0"
     fit-margin-bottom="0" />
  <metadata
     id="metadata6123">
    <rdf:RDF>
      <cc:Work
         rdf:about="">
        <dc:format>image/svg+xml</dc:format>
        <dc:type
           rdf:resource="http://purl.org/dc/dcmitype/StillImage" />
        <dc:title></dc:title>
      </cc:Work>
    </rdf:RDF>
  </metadata>
  <g
     inkscape:label="Layer 1"
     inkscape:groupmode="layer"
     id="layer1"
     transform="translate(-219.19473,-172.18904)">
    <g
       transform="matrix(0.125,0,0,0.125,15.95098,74.988415)"
       id="g258"
       style="fill:#ffffff">
      <g
         id="g260"
         clip-path="url(#clipPath262)"
         style="fill:#ffffff">
        <path
           inkscape:connector-curvature="0"
           d="m 1709.88,1038.39 117.16,0 c 7.84,0 14.17,6.34 14.17,14.17 0,7.83 -6.33,14.17 -14.17,14.17 l -117.16,0 c -7.84,0 -14.18,-6.34 -14.18,-14.17 0,-7.83 6.34,-14.17 14.18,-14.17 z m 0,-52.792 117.16,0 c 7.84,0 14.17,6.336 14.17,14.168 0,7.834 -6.33,14.174 -14.17,14.174 l -117.16,0 c -7.84,0 -14.18,-6.34 -14.18,-14.174 0,-7.832 6.34,-14.168 14.18,-14.168 z m 0,-52.793 117.16,0 c 7.84,0 14.17,6.336 14.17,14.168 0,7.832 -6.33,14.172 -14.17,14.172 l -117.16,0 c -7.84,0 -14.18,-6.34 -14.18,-14.172 0,-7.832 6.34,-14.168 14.18,-14.168 z m 0,-52.785 83.69,0 c 7.83,0 14.16,6.335 14.16,14.171 0,7.832 -6.33,14.168 -14.16,14.168 l -83.69,0 c -7.84,0 -14.18,-6.336 -14.18,-14.168 0,-7.836 6.34,-14.171 14.18,-14.171 z m 189.07,266.07 -258.83,0 c -7.83,0 -14.17,-6.33 -14.17,-14.16 l 0,-340.153 c 0,-7.832 6.34,-14.172 14.17,-14.172 l 183.34,0 c 0.03,0 0.07,0.012 0.09,0.012 0.09,0 0.17,0.02 0.25,0.031 1.8,0.04 3.52,0.399 5.09,1.043 0.02,0.008 0.05,0.008 0.07,0.02 1.74,0.73 3.3,1.816 4.59,3.137 0.02,0.015 0.04,0.015 0.04,0.027 l 75.37,77.109 c 0,0.008 0.02,0.008 0.02,0.02 l 0.1,0.105 c 0.03,0.032 0.03,0.071 0.06,0.09 1.25,1.297 2.26,2.832 2.94,4.531 0.05,0.125 0.07,0.247 0.11,0.372 0.58,1.535 0.93,3.171 0.93,4.914 l 0,262.914 c 0,7.83 -6.34,14.16 -14.17,14.16 z m -61.32,-319.535 0,28.289 27.66,0 -27.66,-28.289 z m 47.15,81.629 c 0,0 0,-13.457 0,-25 -18.71,0 -61.32,0 -61.32,0 -7.83,0 -14.17,-6.336 -14.17,-14.168 0,0 0,-44.172 0,-63.071 l -155,0 0,311.805 230.49,0 c 0,-24.87 0,-209.566 0,-209.566"
           id="path266"
           style="fill:#ffffff" />
      </g>
    </g>
  </g>
</svg>
