<?xml version="1.0" encoding="UTF-8" standalone="no"?>
<!-- Created with Inkscape (http://www.inkscape.org/) -->

<svg
   xmlns:dc="http://purl.org/dc/elements/1.1/"
   xmlns:cc="http://creativecommons.org/ns#"
   xmlns:rdf="http://www.w3.org/1999/02/22-rdf-syntax-ns#"
   xmlns:svg="http://www.w3.org/2000/svg"
   xmlns="http://www.w3.org/2000/svg"
   xmlns:sodipodi="http://sodipodi.sourceforge.net/DTD/sodipodi-0.dtd"
   xmlns:inkscape="http://www.inkscape.org/namespaces/inkscape"
   width="12.409051mm"
   height="8.373086mm"
   viewBox="0 0 43.969078 29.668415"
   id="svg5529"
   version="1.1"
   inkscape:version="0.91 r13725"
   sodipodi:docname="icon-mail-my-01-01.svg">
  <defs
     id="defs5531" />
  <sodipodi:namedview
     id="base"
     pagecolor="#ffffff"
     bordercolor="#666666"
     borderopacity="1.0"
     inkscape:pageopacity="0.0"
     inkscape:pageshadow="2"
     inkscape:zoom="28.649996"
     inkscape:cx="21.996801"
     inkscape:cy="14.834208"
     inkscape:document-units="px"
     inkscape:current-layer="layer1"
     showgrid="false"
     fit-margin-top="0"
     fit-margin-left="0"
     fit-margin-right="0"
     fit-margin-bottom="0"
     showguides="true"
     inkscape:guide-bbox="true"
     inkscape:window-width="1920"
     inkscape:window-height="1017"
     inkscape:window-x="-8"
     inkscape:window-y="-8"
     inkscape:window-maximized="1">
    <sodipodi:guide
       position="43.964907,19.603841"
       orientation="1,0"
       id="guide6101" />
  </sodipodi:namedview>
  <metadata
     id="metadata5534">
    <rdf:RDF>
      <cc:Work
         rdf:about="">
        <dc:format>image/svg+xml</dc:format>
        <dc:type
           rdf:resource="http://purl.org/dc/dcmitype/StillImage" />
        <dc:title></dc:title>
      </cc:Work>
    </rdf:RDF>
  </metadata>
  <g
     inkscape:label="Layer 1"
     inkscape:groupmode="layer"
     id="layer1"
     transform="translate(1695.0212,94.255791)">
    <path
       inkscape:connector-curvature="0"
       d="m -1651.1511,-65.932382 c 0.215,-0.708875 0.084,-1.59025 0.084,-2.315875 0,-1.69525 0,-3.391125 0,-5.085375 0,-3.63525 0,-7.270625 0,-10.905875 0,-1.037 0.1838,-2.282125 -0.8775,-2.90525 -1.1612,-0.678625 -2.6662,0.1895 -2.6662,1.53075 -0.033,0.363875 0,0.746125 0,1.110875 0,4.563 0,9.1265 0,13.688 0,0.376 0,0.752 0,1.127875 -1.5088,-0.970125 -2.99,-2.11175 -4.5775,-2.94425 -1.7613,-1.132875 -3.7,1.355 -2.1688,2.784125 0.705,0.65675 1.6813,1.11325 2.4888,1.633375 -9.3975,0 -18.7965,0 -28.195,0 -1.0644,0 -2.1294,0 -3.1944,0 -2.3666,0 -2.5938,3.545375 -0.1796,3.545375 1.5435,0.13375 3.1591,0 4.7065,0 7.2881,0 14.5762,0 21.865,0 2.9525,0 5.9037,0 8.8562,0 1.3038,0 3.3688,0.367125 3.8588,-1.26375"
       style="fill:#999999;fill-opacity:1;fill-rule:nonzero;stroke:none"
       id="path30" />
    <path
       inkscape:connector-curvature="0"
       d="m -1651.0853,-92.497764 c -0.062,-2.171875 -2.8575,-1.71875 -4.2875,-1.71875 l -37.7686,0 c -2.2905,0 -1.8448,2.763125 -1.8448,4.265125 l 0,23.57425 c 0,1.9775 2.1627,1.784625 3.5177,1.784625 0.853,0 1.7582,0.101 2.3755,-0.631375 0.5068,-0.599625 0.4393,-1.138625 0.1445,-1.798375 l 1.6738,-1.084875 c 2.6587,-1.724625 5.3169,-3.45125 7.9755,-5.175875 0.4723,-0.306625 2.587,-2.021375 2.9718,-1.678125 0.6499,0.582 1.3002,1.164 1.9511,1.745125 1.6406,1.46875 3.3273,-0.71975 4.4885,-1.75 0.4075,-0.361875 2.2338,1.1835 2.6475,1.449625 1.6188,1.0425 3.2375,2.0825 4.8575,3.125 0.975,0.628 2.1188,1.618625 3.2875,0.743625 1.6088,-1.2045 0.2713,-2.666875 -0.885,-3.410625 -2.33,-1.499 -4.66,-2.9965 -6.9887,-4.496 4.1162,-3.65 8.2312,-7.300875 12.3475,-10.95075 0,1.36625 -0.5375,3.999 1.1537,4.628 1.565,0.583 2.39,-0.8585 2.39,-2.171875 0,-2.147 0.064,-4.30575 -0.01,-6.44875 z m -40.3569,22.870625 0,-18.856 c 4.0713,3.6435 8.144,7.286625 12.2154,10.92875 -4.0714,2.643 -8.1441,5.284625 -12.2154,7.92725 z m 18.3272,-7.213875 c -1.7037,-1.524 -11.0572,-9.893125 -15.4614,-13.832125 l 31.0586,0 c -4.4487,3.943875 -13.8862,12.316 -15.5972,13.832125"
       style="fill:#666666;fill-opacity:1;fill-rule:nonzero;stroke:none"
       id="path28" />
  </g>
</svg>
