<?xml version="1.0" encoding="UTF-8" standalone="no"?>
<!-- Generator: Adobe Illustrator 19.1.0, SVG Export Plug-In . SVG Version: 6.00 Build 0)  -->

<svg
   xmlns:dc="http://purl.org/dc/elements/1.1/"
   xmlns:cc="http://creativecommons.org/ns#"
   xmlns:rdf="http://www.w3.org/1999/02/22-rdf-syntax-ns#"
   xmlns:svg="http://www.w3.org/2000/svg"
   xmlns="http://www.w3.org/2000/svg"
   xmlns:sodipodi="http://sodipodi.sourceforge.net/DTD/sodipodi-0.dtd"
   xmlns:inkscape="http://www.inkscape.org/namespaces/inkscape"
   version="1.1"
   id="Capa_1"
   x="0px"
   y="0px"
   viewBox="0 0 482.9 482.9"
   style="enable-background:new 0 0 482.9 482.9;"
   xml:space="preserve"
   width="512px"
   height="512px"
   inkscape:version="0.91 r13725"
   sodipodi:docname="icon-avatar-01-02-outlined-full.svg"><metadata
     id="metadata3438"><rdf:RDF><cc:Work
         rdf:about=""><dc:format>image/svg+xml</dc:format><dc:type
           rdf:resource="http://purl.org/dc/dcmitype/StillImage" /><dc:title></dc:title></cc:Work></rdf:RDF></metadata><defs
     id="defs3436" /><sodipodi:namedview
     pagecolor="#ffffff"
     bordercolor="#666666"
     borderopacity="1"
     objecttolerance="10"
     gridtolerance="10"
     guidetolerance="10"
     inkscape:pageopacity="0"
     inkscape:pageshadow="2"
     inkscape:window-width="1443"
     inkscape:window-height="830"
     id="namedview3434"
     showgrid="false"
     inkscape:zoom="0.7321145"
     inkscape:cx="64.047915"
     inkscape:cy="180.81061"
     inkscape:window-x="174"
     inkscape:window-y="90"
     inkscape:window-maximized="1"
     inkscape:current-layer="Capa_1" /><rect
     style="fill:#0000ff;fill-opacity:1;stroke:#ff6767;stroke-width:0.94316411;stroke-opacity:1"
     id="rect3440"
     width="829.14972"
     height="618.64856"
     x="-170.93872"
     y="-69.880348" /><g
     id="g3404" /><g
     id="g3406" /><g
     id="g3408" /><g
     id="g3410" /><g
     id="g3412" /><g
     id="g3414" /><g
     id="g3416" /><g
     id="g3418" /><g
     id="g3420" /><g
     id="g3422" /><g
     id="g3424" /><g
     id="g3426" /><g
     id="g3428" /><g
     id="g3430" /><g
     id="g3432" /><g
     id="g4353"><g
       style="fill:#ffffff"
       id="g3396"><g
         style="fill:#ffffff"
         id="g3398"><path
           style="fill:#ffffff"
           id="path3400"
           fill="#FFFFFF"
           d="M239.7,260.2c0.5,0,1,0,1.6,0c0.2,0,0.4,0,0.6,0c0.3,0,0.7,0,1,0c29.3-0.5,53-10.8,70.5-30.5    c38.5-43.4,32.1-117.8,31.4-124.9c-2.5-53.3-27.7-78.8-48.5-90.7C280.8,5.2,262.7,0.4,242.5,0h-0.7c-0.1,0-0.3,0-0.4,0h-0.6    c-11.1,0-32.9,1.8-53.8,13.7c-21,11.9-46.6,37.4-49.1,91.1c-0.7,7.1-7.1,81.5,31.4,124.9C186.7,249.4,210.4,259.7,239.7,260.2z     M164.6,107.3c0-0.3,0.1-0.6,0.1-0.8c3.3-71.7,54.2-79.4,76-79.4h0.4c0.2,0,0.5,0,0.8,0c27,0.6,72.9,11.6,76,79.4    c0,0.3,0,0.6,0.1,0.8c0.1,0.7,7.1,68.7-24.7,104.5c-12.6,14.2-29.4,21.2-51.5,21.4c-0.2,0-0.3,0-0.5,0l0,0c-0.2,0-0.3,0-0.5,0    c-22-0.2-38.9-7.2-51.4-21.4C157.7,176.2,164.5,107.9,164.6,107.3z" /><path
           sodipodi:nodetypes="csccccscccccscccccsccccccccsccc"
           style="fill:#ffffff"
           inkscape:connector-curvature="0"
           id="path3402"
           d="m 446.8,383.6 0,-0.3 c 0,-0.8 -0.1,-1.6 -0.1,-2.5 -0.6,-19.8 -1.9,-66.1 -45.3,-80.9 -0.3,-0.1 -0.7,-0.2 -1,-0.3 -45.1,-11.5 -82.6,-37.5 -83,-37.8 -6.1,-4.3 -32.67977,-22.68412 -36.97977,-16.58412 -4.3,6.1 15.37977,34.38412 21.47977,38.68412 1.7,1.2 41.5,28.9 91.3,41.7 23.3,8.3 25.9,33.2 26.6,56 0,0.9 0,1.7 0.1,2.5 0.1,9 -0.5,22.9 -2.1,30.9 -16.2,9.2 -79.7,41 -176.3,41 C 145.3,456 81.4,424.1 65.1,414.9 63.5,406.9 62.8,393 63,384 c 0,-0.8 0.1,-1.6 0.1,-2.5 0.7,-22.8 3.3,-47.7 26.6,-56 49.8,-12.8 89.6,-40.6 91.3,-41.7 6.1,-4.3 24.64353,-29.17541 20.34353,-35.27541 -4.3,-6.1 -29.74353,8.87541 -35.84353,13.17541 -0.4,0.3 -37.7,26.3 -83,37.8 -0.4,0.1 -0.7,0.2 -1,0.3 -43.4,14.9 -44.7,61.2 -45.3,80.9 0,0.9 0,1.7 -0.1,2.5 l 0,0.3 c -0.1,5.2 -0.2,31.9 5.1,45.3 1,2.6 2.8,4.8 5.2,6.3 3,2 74.9,47.8 195.2,47.8 120.3,0 192.2,-45.9 195.2,-47.8 2.3,-1.5 4.2,-3.7 5.2,-6.3 5,-13.3 4.9,-40 4.8,-45.2 z" /></g></g><path
       transform="scale(0.94316409,0.94316409)"
       inkscape:connector-curvature="0"
       id="path4349"
       d="m 240.54239,245.69443 c -15.08505,-2.54133 -26.57517,-8.38388 -36.84362,-18.73441 -13.92504,-14.03633 -22.90751,-34.9041 -27.42489,-63.71259 -1.35434,-8.63703 -1.53112,-12.32613 -1.5315,-31.96006 -4.4e-4,-23.403 0.62418,-30.70826 3.73545,-43.687735 6.39085,-26.661157 23.23349,-45.79068 47.46174,-53.906066 9.52371,-3.190019 17.63468,-4.399866 29.34029,-4.376454 36.46723,0.07294 62.65947,16.641912 74.3546,47.036039 8.58009,22.298585 10.40049,65.384026 4.0956,96.935836 -1.42815,7.14697 -4.59042,18.12974 -6.80194,23.62357 -11.45238,28.4499 -29.42813,44.2059 -55.54847,48.689 -7.68891,1.31966 -23.27649,1.36661 -30.83726,0.0929 z"
       style="fill:#ffffff;fill-opacity:1;stroke:#ffffff;stroke-width:0;stroke-miterlimit:4;stroke-dasharray:none;stroke-opacity:1" /><path
       transform="scale(0.94316409,0.94316409)"
       inkscape:connector-curvature="0"
       id="path4351"
       d="M 231.37649,482.52832 C 176.94913,479.5835 122.66566,466.09675 78.961436,444.66074 c -9.503372,-4.6612 -9.685246,-4.79231 -10.089718,-7.2737 -1.751502,-10.74525 -2.211303,-30.03446 -1.053296,-44.18709 1.632034,-19.94599 6.119573,-31.94837 15.029185,-40.1971 3.597815,-3.33094 11.474811,-7.95111 13.555969,-7.95111 0.406728,0 5.280054,-1.40678 10.829614,-3.12618 26.13813,-8.09826 56.50638,-22.41603 80.60425,-38.0026 4.64098,-3.00181 7.47188,-5.47107 10.67204,-9.30873 5.64994,-6.77549 12.32785,-17.13439 14.26305,-22.12509 1.14651,-2.95677 1.78565,-3.83228 2.55408,-3.49865 0.5637,0.24474 3.87806,1.3153 7.36525,2.37902 21.47785,6.55155 49.24045,6.14005 69.75339,-1.0339 2.78663,-0.97456 5.12716,-1.6957 5.2012,-1.60254 0.074,0.0932 1.27945,2.47007 2.6787,5.28202 3.15643,6.34322 8.47373,14.51221 13.67752,21.01284 4.30206,5.37418 8.50857,8.44597 23.57823,17.21791 23.58561,13.72901 44.91561,22.83587 76.63896,32.72106 7.92364,2.46904 12.59547,5.31274 17.43438,10.61211 5.92701,6.491 9.76741,16.21142 11.76053,29.76697 1.1874,8.07584 1.65289,32.76415 0.793,42.06001 -1.26889,13.71757 -0.0488,11.94339 -12.3736,17.99298 -41.64794,20.44276 -93.51338,33.38757 -147.85862,36.90319 -9.87823,0.63904 -42.38495,0.7788 -52.59906,0.22616 z"
       style="fill:#ffffff;fill-opacity:1;stroke:#ffffff;stroke-width:0;stroke-miterlimit:4;stroke-dasharray:none;stroke-opacity:1" /></g></svg>