<?xml version="1.0" encoding="UTF-8" standalone="no"?>
<!-- Generator: Adobe Illustrator 19.0.0, SVG Export Plug-In . SVG Version: 6.00 Build 0)  -->

<svg
   xmlns:dc="http://purl.org/dc/elements/1.1/"
   xmlns:cc="http://creativecommons.org/ns#"
   xmlns:rdf="http://www.w3.org/1999/02/22-rdf-syntax-ns#"
   xmlns:svg="http://www.w3.org/2000/svg"
   xmlns="http://www.w3.org/2000/svg"
   xmlns:xlink="http://www.w3.org/1999/xlink"
   xmlns:sodipodi="http://sodipodi.sourceforge.net/DTD/sodipodi-0.dtd"
   xmlns:inkscape="http://www.inkscape.org/namespaces/inkscape"
   version="1.1"
   id="Layer_1"
   x="0px"
   y="0px"
   viewBox="0 0 511.99964 473.77204"
   xml:space="preserve"
   inkscape:version="0.91 r13725"
   sodipodi:docname="icon-basket.svg"
   width="511.99963"
   height="473.77203"><metadata
     id="metadata67"><rdf:RDF><cc:Work
         rdf:about=""><dc:format>image/svg+xml</dc:format><dc:type
           rdf:resource="http://purl.org/dc/dcmitype/StillImage" /><dc:title></dc:title></cc:Work></rdf:RDF></metadata><defs
     id="defs65"><linearGradient
       id="linearGradient4246"
       inkscape:collect="always"><stop
         id="stop4248"
         offset="0"
         style="stop-color:#8edbe8;stop-opacity:1" /><stop
         id="stop4250"
         offset="1"
         style="stop-color:#1266da;stop-opacity:1" /></linearGradient><linearGradient
       inkscape:collect="always"
       id="linearGradient4236"><stop
         style="stop-color:#b3b3b3;stop-opacity:1"
         offset="0"
         id="stop4238" /><stop
         style="stop-color:#6c9bd7;stop-opacity:1"
         offset="1"
         id="stop4240" /></linearGradient><linearGradient
       inkscape:collect="always"
       xlink:href="#linearGradient4246"
       id="linearGradient4244"
       gradientUnits="userSpaceOnUse"
       x1="269.01642"
       y1="497.63641"
       x2="264.67746"
       y2="0.82380509" /><linearGradient
       inkscape:collect="always"
       xlink:href="#linearGradient4236"
       id="linearGradient4264"
       gradientUnits="userSpaceOnUse"
       x1="275.52487"
       y1="475.94153"
       x2="264.67746"
       y2="0.82380509" /><linearGradient
       inkscape:collect="always"
       xlink:href="#linearGradient4236"
       id="linearGradient4266"
       gradientUnits="userSpaceOnUse"
       x1="275.52487"
       y1="475.94153"
       x2="264.67746"
       y2="0.82380509" /><linearGradient
       inkscape:collect="always"
       xlink:href="#linearGradient4236"
       id="linearGradient4268"
       gradientUnits="userSpaceOnUse"
       x1="275.52487"
       y1="475.94153"
       x2="264.67746"
       y2="0.82380509" /><linearGradient
       inkscape:collect="always"
       xlink:href="#linearGradient4236"
       id="linearGradient4270"
       gradientUnits="userSpaceOnUse"
       x1="275.52487"
       y1="475.94153"
       x2="264.67746"
       y2="0.82380509" /><linearGradient
       inkscape:collect="always"
       xlink:href="#linearGradient4236"
       id="linearGradient4272"
       gradientUnits="userSpaceOnUse"
       x1="275.52487"
       y1="475.94153"
       x2="264.67746"
       y2="0.82380509" /><linearGradient
       inkscape:collect="always"
       xlink:href="#linearGradient4236"
       id="linearGradient4274"
       gradientUnits="userSpaceOnUse"
       x1="275.52487"
       y1="475.94153"
       x2="264.67746"
       y2="0.82380509" /><linearGradient
       inkscape:collect="always"
       xlink:href="#linearGradient4236"
       id="linearGradient4276"
       gradientUnits="userSpaceOnUse"
       x1="275.52487"
       y1="475.94153"
       x2="264.67746"
       y2="0.82380509" /><linearGradient
       inkscape:collect="always"
       xlink:href="#linearGradient4236"
       id="linearGradient4278"
       gradientUnits="userSpaceOnUse"
       x1="275.52487"
       y1="475.94153"
       x2="264.67746"
       y2="0.82380509" /></defs><sodipodi:namedview
     pagecolor="#ffffff"
     bordercolor="#666666"
     borderopacity="1"
     objecttolerance="10"
     gridtolerance="10"
     guidetolerance="10"
     inkscape:pageopacity="0"
     inkscape:pageshadow="2"
     inkscape:window-width="1289"
     inkscape:window-height="782"
     id="namedview63"
     showgrid="false"
     fit-margin-top="0"
     fit-margin-left="0"
     fit-margin-right="0"
     fit-margin-bottom="0"
     inkscape:zoom="0.46093841"
     inkscape:cx="-91.118012"
     inkscape:cy="236.8865"
     inkscape:window-x="0"
     inkscape:window-y="0"
     inkscape:window-maximized="0"
     inkscape:current-layer="Layer_1" /><g
     id="g4295"><g
       transform="matrix(-1,0,0,1,511.99919,-19.113979)"
       id="g3"
       style="fill:#129cda;fill-opacity:1"><g
         id="g5"
         style="fill:#129cda;fill-opacity:1"><path
           inkscape:connector-curvature="0"
           id="path7"
           d="m 214.685,402.828 c -24.829,0 -45.029,20.2 -45.029,45.029 0,24.829 20.2,45.029 45.029,45.029 24.829,0 45.029,-20.2 45.029,-45.029 -10e-4,-24.829 -20.201,-45.029 -45.029,-45.029 z m 0,64.914 c -10.966,0 -19.887,-8.922 -19.887,-19.887 0,-10.966 8.922,-19.887 19.887,-19.887 10.965,0 19.887,8.922 19.887,19.887 0,10.967 -8.922,19.887 -19.887,19.887 z"
           style="fill:#129cda;fill-opacity:1" /></g></g><g
       transform="matrix(-1,0,0,1,511.99919,-19.113979)"
       id="g9"
       style="fill:#129cda;fill-opacity:1"><g
         id="g11"
         style="fill:#129cda;fill-opacity:1"><path
           inkscape:connector-curvature="0"
           id="path13"
           d="m 372.63,402.828 c -24.829,0 -45.029,20.2 -45.029,45.029 0,24.829 20.2,45.029 45.029,45.029 24.829,0 45.029,-20.2 45.029,-45.029 -10e-4,-24.829 -20.201,-45.029 -45.029,-45.029 z m 0,64.914 c -10.966,0 -19.887,-8.922 -19.887,-19.887 0,-10.966 8.922,-19.887 19.887,-19.887 10.966,0 19.887,8.922 19.887,19.887 0,10.967 -8.922,19.887 -19.887,19.887 z"
           style="fill:#129cda;fill-opacity:1" /></g></g><g
       transform="matrix(-1,0,0,1,511.99919,-19.113979)"
       id="g15"
       style="fill:url(#linearGradient4268);fill-opacity:1"><g
         id="g17"
         style="fill:url(#linearGradient4266);fill-opacity:1"><path
           inkscape:connector-curvature="0"
           id="path19"
           d="m 383.716,165.755 -180.149,0 c -6.943,0 -12.571,5.628 -12.571,12.571 0,6.943 5.629,12.571 12.571,12.571 l 180.149,0 c 6.943,0 12.571,-5.628 12.571,-12.571 0,-6.944 -5.628,-12.571 -12.571,-12.571 z"
           style="fill:url(#linearGradient4264);fill-opacity:1" /></g></g><g
       transform="matrix(-1,0,0,1,511.99919,-19.113979)"
       id="g21"
       style="fill:url(#linearGradient4274);fill-opacity:1"><g
         id="g23"
         style="fill:url(#linearGradient4272);fill-opacity:1"><path
           inkscape:connector-curvature="0"
           id="path25"
           d="m 373.911,231.035 -160.538,0 c -6.943,0 -12.571,5.628 -12.571,12.571 0,6.943 5.628,12.571 12.571,12.571 l 160.537,0 c 6.943,0 12.571,-5.628 12.571,-12.571 0,-6.942 -5.628,-12.571 -12.57,-12.571 z"
           style="fill:url(#linearGradient4270);fill-opacity:1" /></g></g><g
       transform="matrix(-1,0,0,1,511.99919,-19.113979)"
       id="g27"
       style="fill:url(#linearGradient4278);fill-opacity:1"><g
         id="g29"
         style="fill:url(#linearGradient4276);fill-opacity:1"><path
           inkscape:connector-curvature="0"
           id="path31"
           d="m 506.341,109.744 c -4.794,-5.884 -11.898,-9.258 -19.489,-9.258 l -391.574,0 L 87.37,62.097 C 85.719,54.089 80.257,47.365 72.756,44.108 L 17.579,20.158 C 11.209,17.391 3.806,20.314 1.043,26.682 -1.723,33.052 1.2,40.456 7.567,43.219 l 55.178,23.951 60.826,295.261 c 2.396,11.628 12.752,20.068 24.625,20.068 l 301.166,0 c 6.943,0 12.571,-5.628 12.571,-12.571 0,-6.943 -5.628,-12.571 -12.571,-12.571 l -301.165,0 -7.399,-35.916 310.892,0 c 11.872,0 22.229,-8.44 24.624,-20.068 l 35.163,-170.675 c 1.531,-7.432 -0.341,-15.071 -5.136,-20.954 z m -54.651,186.557 -316.071,0 -35.161,-170.674 386.393,0.001 -35.161,170.673 z"
           style="fill:url(#linearGradient4244);fill-opacity:1" /></g></g></g><g
     id="g33"
     transform="translate(4.5246008e-4,-19.113979)" /><g
     id="g35"
     transform="translate(4.5246008e-4,-19.113979)" /><g
     id="g37"
     transform="translate(4.5246008e-4,-19.113979)" /><g
     id="g39"
     transform="translate(4.5246008e-4,-19.113979)" /><g
     id="g41"
     transform="translate(4.5246008e-4,-19.113979)" /><g
     id="g43"
     transform="translate(4.5246008e-4,-19.113979)" /><g
     id="g45"
     transform="translate(4.5246008e-4,-19.113979)" /><g
     id="g47"
     transform="translate(4.5246008e-4,-19.113979)" /><g
     id="g49"
     transform="translate(4.5246008e-4,-19.113979)" /><g
     id="g51"
     transform="translate(4.5246008e-4,-19.113979)" /><g
     id="g53"
     transform="translate(4.5246008e-4,-19.113979)" /><g
     id="g55"
     transform="translate(4.5246008e-4,-19.113979)" /><g
     id="g57"
     transform="translate(4.5246008e-4,-19.113979)" /><g
     id="g59"
     transform="translate(4.5246008e-4,-19.113979)" /><g
     id="g61"
     transform="translate(4.5246008e-4,-19.113979)" /></svg>