<?xml version="1.0" encoding="UTF-8" standalone="no"?>
<!-- Created with Inkscape (http://www.inkscape.org/) -->

<svg
   xmlns:dc="http://purl.org/dc/elements/1.1/"
   xmlns:cc="http://creativecommons.org/ns#"
   xmlns:rdf="http://www.w3.org/1999/02/22-rdf-syntax-ns#"
   xmlns:svg="http://www.w3.org/2000/svg"
   xmlns="http://www.w3.org/2000/svg"
   xmlns:sodipodi="http://sodipodi.sourceforge.net/DTD/sodipodi-0.dtd"
   xmlns:inkscape="http://www.inkscape.org/namespaces/inkscape"
   width="16.10854mm"
   height="11.739387mm"
   viewBox="0 0 57.077502 41.596251"
   id="svg4391"
   version="1.1"
   inkscape:version="0.91 r13725"
   sodipodi:docname="icon-hierarchy-my-01-01.svg">
  <defs
     id="defs4393">
    <clipPath
       id="clipPath176"
       clipPathUnits="userSpaceOnUse">
      <path
         inkscape:connector-curvature="0"
         id="path178"
         d="m 1682.55,1862.15 0,49.69 c 0,14.9 -12.13,27.02 -27.05,27.02 l -87.23,0 c -14.92,0 -27.05,-12.12 -27.05,-27.02 l 0,-49.69 c 0,-14.9 12.13,-27.03 27.05,-27.03 l 87.23,0 c 14.92,0 27.05,12.13 27.05,27.03 z m -28.34,17.03 c 0,0 0,-13.46 0,-15.71 l -84.65,0 0,47.04 c 2.02,0 9.83,0 9.83,0 0,0 72.32,0 74.82,0 0,-2.43 0,-31.33 0,-31.33 z m 266.49,-54.71 c -7.83,0 -14.16,-6.34 -14.16,-14.17 0,-1.06 -0.86,-1.92 -1.92,-1.92 l -122.46,0 0,1.92 c 0,7.83 -6.34,14.17 -14.17,14.17 -7.83,0 -14.17,-6.34 -14.17,-14.17 l 0,-1.92 -111.68,0 c -1.05,0 -1.91,0.86 -1.91,1.92 0,7.83 -6.34,14.17 -14.18,14.17 -7.83,0 -14.16,-6.34 -14.16,-14.17 0,-16.69 13.57,-30.26 30.25,-30.26 l 111.68,0 0,-24.4 c 0,-7.83 6.34,-14.18 14.17,-14.18 7.83,0 14.17,6.35 14.17,14.18 l 0,24.4 122.46,0 c 16.68,0 30.26,13.57 30.26,30.26 0,7.83 -6.34,14.17 -14.18,14.17 z m -194.78,10.65 87.22,0 c 14.93,0 27.06,12.13 27.06,27.03 l 0,49.69 c 0,14.9 -12.13,27.02 -27.06,27.02 l -87.22,0 c -14.92,0 -27.05,-12.12 -27.05,-27.02 l 0,-49.69 c 0,-14.9 12.13,-27.03 27.05,-27.03 z m 1.29,75.39 c 2.02,0 9.82,0 9.82,0 0,0 72.33,0 74.83,0 0,-2.43 0,-31.33 0,-31.33 0,0 0,-13.46 0,-15.71 l -84.65,0 0,47.04 z m 243.58,28.35 -87.22,0 c -14.93,0 -27.05,-12.12 -27.05,-27.02 l 0,-49.69 c 0,-14.9 12.12,-27.03 27.05,-27.03 l 87.22,0 c 14.92,0 27.05,12.13 27.05,27.03 l 0,49.69 c 0,14.9 -12.13,27.02 -27.05,27.02 z m -1.29,-59.68 c 0,0 0,-13.46 0,-15.71 l -84.64,0 0,47.04 c 2.02,0 9.82,0 9.82,0 0,0 72.32,0 74.82,0 0,-2.43 0,-31.33 0,-31.33 z m -130.11,-145.52 -142.81,0 c -15.34,0 -27.81,-11.69 -27.81,-26.07 l 0,-75.42 c 0,-14.38 12.47,-26.08 27.81,-26.08 l 142.81,0 c 15.34,0 27.81,11.7 27.81,26.08 l 0,75.42 c 0,14.38 -12.47,26.07 -27.81,26.07 z m -0.53,-77.64 c 0,0 0,-17.84 0,-21.57 -1.05,0 -139.84,0.06 -141.75,0.07 l 0,70.79 c 1.03,0 31.38,0 31.38,0 0,0 108.44,-0.08 110.37,-0.08 0,-4.3 0,-49.21 0,-49.21" />
    </clipPath>
  </defs>
  <sodipodi:namedview
     id="base"
     pagecolor="#ffffff"
     bordercolor="#666666"
     borderopacity="1.0"
     inkscape:pageopacity="0.0"
     inkscape:pageshadow="2"
     inkscape:zoom="11.2"
     inkscape:cx="28.234441"
     inkscape:cy="5.1276429"
     inkscape:document-units="px"
     inkscape:current-layer="layer1"
     showgrid="false"
     inkscape:window-width="1920"
     inkscape:window-height="1017"
     inkscape:window-x="-8"
     inkscape:window-y="-8"
     inkscape:window-maximized="1"
     fit-margin-top="0"
     fit-margin-left="0"
     fit-margin-right="0"
     fit-margin-bottom="0" />
  <metadata
     id="metadata4396">
    <rdf:RDF>
      <cc:Work
         rdf:about="">
        <dc:format>image/svg+xml</dc:format>
        <dc:type
           rdf:resource="http://purl.org/dc/dcmitype/StillImage" />
        <dc:title></dc:title>
      </cc:Work>
    </rdf:RDF>
  </metadata>
  <g
     inkscape:label="Layer 1"
     inkscape:groupmode="layer"
     id="layer1"
     transform="translate(-132.20274,-141.44524)">
    <g
       id="g5514">
      <path
         style="fill:#9ba2a7;fill-opacity:1"
         id="path180"
         d="m 171.61399,173.45274 0,6.21125 c 0,1.8625 1.51625,3.3775 3.38125,3.3775 l 10.90375,0 c 1.865,0 3.38125,-1.515 3.38125,-3.3775 l 0,-6.21125 c 0,-1.8625 -1.51625,-3.37875 -3.38125,-3.37875 l -10.90375,0 c -1.865,0 -3.38125,1.51625 -3.38125,3.37875 z m 3.5425,2.12875 c 0,0 0,-1.6825 0,-1.96375 l 10.58125,0 0,5.88 c -0.2525,0 -1.22875,0 -1.22875,0 0,0 -9.04,0 -9.3525,0 0,-0.30375 0,-3.91625 0,-3.91625 z m -33.31125,-6.83875 c 0.97875,0 1.77,-0.7925 1.77,-1.77125 0,-0.1325 0.1075,-0.24 0.24,-0.24 l 15.3075,0 0,0.24 c 0,0.97875 0.7925,1.77125 1.77125,1.77125 0.97875,0 1.77125,-0.7925 1.77125,-1.77125 l 0,-0.24 13.96,0 c 0.13125,0 0.23875,0.1075 0.23875,0.24 0,0.97875 0.7925,1.77125 1.7725,1.77125 0.97875,0 1.77,-0.7925 1.77,-1.77125 0,-2.08625 -1.69625,-3.7825 -3.78125,-3.7825 l -13.96,0 0,-3.05 c 0,-0.97875 -0.7925,-1.7725 -1.77125,-1.7725 -0.97875,0 -1.77125,0.79375 -1.77125,1.7725 l 0,3.05 -15.3075,0 c -2.085,0 -3.7825,1.69625 -3.7825,3.7825 0,0.97875 0.7925,1.77125 1.7725,1.77125 z m 24.3475,1.33125 -10.9025,0 c -1.86625,0 -3.3825,1.51625 -3.3825,3.37875 l 0,6.21125 c 0,1.8625 1.51625,3.3775 3.3825,3.3775 l 10.9025,0 c 1.865,0 3.38125,-1.515 3.38125,-3.3775 l 0,-6.21125 c 0,-1.8625 -1.51625,-3.37875 -3.38125,-3.37875 z m -0.16125,9.42375 c -0.2525,0 -1.2275,0 -1.2275,0 0,0 -9.04125,0 -9.35375,0 0,-0.30375 0,-3.91625 0,-3.91625 0,0 0,-1.6825 0,-1.96375 l 10.58125,0 0,5.88 z m -30.4475,3.54375 10.9025,0 c 1.86625,0 3.38125,-1.515 3.38125,-3.3775 l 0,-6.21125 c 0,-1.8625 -1.515,-3.37875 -3.38125,-3.37875 l -10.9025,0 c -1.865,0 -3.38125,1.51625 -3.38125,3.37875 l 0,6.21125 c 0,1.8625 1.51625,3.3775 3.38125,3.3775 z m 0.16125,-7.46 c 0,0 0,-1.6825 0,-1.96375 l 10.58,0 0,5.88 c -0.2525,0 -1.2275,0 -1.2275,0 0,0 -9.04,0 -9.3525,0 0,-0.30375 0,-3.91625 0,-3.91625 z m 16.26375,-18.19 17.85125,0 c 1.9175,0 3.47625,-1.46125 3.47625,-3.25875 l 0,-9.4275 c 0,-1.7975 -1.55875,-3.26 -3.47625,-3.26 l -17.85125,0 c -1.9175,0 -3.47625,1.4625 -3.47625,3.26 l 0,9.4275 c 0,1.7975 1.55875,3.25875 3.47625,3.25875 z m 0.0662,-9.705 c 0,0 0,-2.23 0,-2.69625 0.13125,0 17.48,0.007 17.71875,0.009 l 0,8.84875 c -0.12875,0 -3.9225,0 -3.9225,0 0,0 -13.555,-0.01 -13.79625,-0.01 0,-0.5375 0,-6.15125 0,-6.15125"
         inkscape:connector-curvature="0" />
      <path
         inkscape:connector-curvature="0"
         id="path5508"
         d="m 151.12241,157.25143 c -0.87314,-0.21137 -1.77145,-0.89126 -2.16954,-1.64203 -0.40649,-0.76661 -0.39656,-0.61244 -0.39656,-6.15994 0,-3.43149 0.0222,-5.14091 0.0698,-5.36895 0.24092,-1.15528 1.22695,-2.15463 2.46275,-2.49602 0.37699,-0.10414 1.01774,-0.11139 9.84185,-0.11139 8.82412,0 9.46487,0.007 9.84186,0.11139 1.24403,0.34367 2.22022,1.33305 2.46274,2.49602 0.0971,0.46539 0.0972,10.22836 1.9e-4,10.69508 -0.24139,1.16108 -1.2863,2.18668 -2.52547,2.47878 -0.5876,0.13851 -19.01471,0.13574 -19.58761,-0.003 l 3e-5,0 z m 18.71023,-7.82338 0,-4.45099 -8.90197,0 -8.90196,0 0,4.4089 c 0,2.42489 0.0189,4.42784 0.0421,4.45098 0.0232,0.0232 4.02904,0.0421 8.90197,0.0421 l 8.85988,0 0,-4.45098 z"
         style="fill:#808080;fill-opacity:1;stroke:#ffffff;stroke-width:0;stroke-miterlimit:4;stroke-dasharray:none;stroke-opacity:1" />
      <path
         inkscape:connector-curvature="0"
         id="path5510"
         d="m 135.20335,182.98765 c -0.8208,-0.0982 -1.51769,-0.46484 -2.10262,-1.10617 -0.37224,-0.40812 -0.57535,-0.76918 -0.74865,-1.3308 -0.10694,-0.34658 -0.11605,-0.66112 -0.11605,-4.00635 0,-3.57586 0.002,-3.63685 0.14022,-4.07218 0.2643,-0.83305 0.87244,-1.56435 1.64195,-1.97449 0.74993,-0.39971 0.59588,-0.39109 7.00621,-0.39212 3.98184,-6.4e-4 5.92676,0.0209 6.15561,0.0683 1.19778,0.24794 2.23183,1.23517 2.54231,2.42718 0.13856,0.53199 0.14286,7.39432 0.005,7.91246 -0.23304,0.87556 -0.96262,1.77323 -1.74095,2.14204 -0.76617,0.36306 -0.52863,0.35013 -6.6905,0.3643 -3.14252,0.007 -5.88414,-0.007 -6.09248,-0.0322 l -10e-6,0 z m 11.14325,-6.44332 0,-2.96732 -5.3033,0 -5.3033,0 0,2.96732 0,2.96732 5.3033,0 5.3033,0 0,-2.96732 z"
         style="fill:#b3b3b3;fill-opacity:1;stroke:#ffffff;stroke-width:0;stroke-miterlimit:4;stroke-dasharray:none;stroke-opacity:1" />
      <path
         inkscape:connector-curvature="0"
         id="path5512"
         d="m 174.5993,182.98367 c -1.34153,-0.1501 -2.49264,-1.14988 -2.84404,-2.47016 -0.13791,-0.51814 -0.13361,-7.38047 0.005,-7.91246 0.3086,-1.18483 1.35384,-2.18289 2.5423,-2.42756 0.22768,-0.0469 2.1943,-0.0686 6.15562,-0.0679 6.41032,0.001 6.25627,-0.008 7.0062,0.39212 0.76952,0.41014 1.37765,1.14144 1.64196,1.97449 0.13811,0.43533 0.14021,0.49632 0.14021,4.07218 0,3.96418 0.004,3.9168 -0.38097,4.67624 -0.34698,0.68473 -1.18617,1.38445 -1.98202,1.65263 l -0.41493,0.13981 -5.71367,0.01 c -3.14252,0.006 -5.91255,-0.0122 -6.15562,-0.0394 z m 11.14325,-6.43934 0,-2.96732 -5.3033,0 -5.30331,0 0,2.96732 0,2.96732 5.30331,0 5.3033,0 0,-2.96732 z"
         style="fill:#b3b3b3;fill-opacity:1;stroke:#ffffff;stroke-width:0;stroke-miterlimit:4;stroke-dasharray:none;stroke-opacity:1" />
    </g>
  </g>
</svg>
